<?xml version="1.0" encoding="utf-8"?>
<!-- Generator: Adobe Illustrator 20.1.0, SVG Export Plug-In . SVG Version: 6.00 Build 0)  -->
<svg version="1.1" id="Layer_1" xmlns="http://www.w3.org/2000/svg" xmlns:xlink="http://www.w3.org/1999/xlink" x="0px" y="0px"
	 viewBox="0 0 700 500" style="enable-background:new 0 0 700 500;" xml:space="preserve">
<style type="text/css">
	.st0{opacity:0.75;fill:#818181;}
	.st1{opacity:0.75;fill:#CDCDCD;}
	.st2{opacity:0.75;fill:#5C5C5C;}
	.st3{opacity:0.75;fill:#A6A6A6;}
	.st4{opacity:0.75;fill:#6C6C6C;}
	.st5{opacity:0.75;fill:#616161;}
	.st6{opacity:0.75;fill:#C3C3C3;}
	.st7{opacity:0.75;fill:#878787;}
	.st8{opacity:0.75;fill:#8E8E8E;}
	.st9{opacity:0.75;fill:#808080;}
	.st10{opacity:0.75;fill:#383838;}
	.st11{opacity:0.75;fill:#CACACA;}
</style>
<g id="NS">
	<polygon class="st0" points="635.8,353.8 625.8,359.5 615.9,353.8 615.9,342.3 625.8,336.6 635.8,342.3 	"/>
	<polygon class="st0" points="615.9,388.2 606,393.9 596.1,388.2 596.1,376.7 606,371 615.9,376.7 	"/>
	<polygon class="st0" points="625.8,371 615.9,376.7 606,371 606,359.5 615.9,353.8 625.8,359.5 	"/>
	<polygon class="st0" points="615.9,353.8 606,359.5 596.1,353.8 596.1,342.3 606,336.6 615.9,342.3 	"/>
	<polygon class="st0" points="606,371 596.1,376.7 586.2,371 586.2,359.5 596.1,353.8 606,359.5 	"/>
</g>
<g id="NB">
	<polygon class="st1" points="596.1,388.2 586.2,393.9 576.2,388.2 576.2,376.7 586.2,371 596.1,376.7 	"/>
	<polygon class="st1" points="576.3,388.2 566.3,393.9 556.4,388.2 556.4,376.7 566.3,371 576.3,376.7 	"/>
	<polygon class="st1" points="586.2,371 576.3,376.7 566.3,371 566.3,359.5 576.3,353.8 586.2,359.5 	"/>
	<polygon class="st1" points="556.4,388.2 546.5,393.9 536.6,388.2 536.6,376.7 546.5,371 556.4,376.7 	"/>
	<polygon class="st1" points="566.4,371 556.4,376.7 546.5,371 546.5,359.5 556.4,353.8 566.4,359.5 	"/>
</g>
<g id="NL">
	<polygon class="st2" points="655.6,285 645.7,290.8 635.7,285 635.7,273.6 645.7,267.8 655.6,273.6 	"/>
	<polygon class="st2" points="645.7,302.2 635.7,308 625.8,302.2 625.8,290.8 635.7,285 645.7,290.8 	"/>
	<polygon class="st2" points="635.8,285 625.8,290.8 615.9,285 615.9,273.6 625.8,267.8 635.8,273.6 	"/>
	<polygon class="st2" points="645.7,267.8 635.7,273.6 625.8,267.8 625.8,256.4 635.7,250.7 645.7,256.4 	"/>
	<polygon class="st2" points="625.8,302.2 615.9,308 606,302.2 606,290.8 615.9,285 625.8,290.8 	"/>
	<polygon class="st2" points="615.9,285 606,290.8 596.1,285 596.1,273.6 606,267.8 615.9,273.6 	"/>
	<polygon class="st2" points="625.8,267.8 615.9,273.6 606,267.8 606,256.4 615.9,250.7 625.8,256.4 	"/>
	<polygon class="st2" points="615.9,250.7 606,256.4 596.1,250.7 596.1,239.2 606,233.5 615.9,239.2 	"/>
	<polygon class="st2" points="606,267.8 596.1,273.6 586.2,267.8 586.2,256.4 596.1,250.7 606,256.4 	"/>
	<polygon class="st2" points="596.1,250.7 586.2,256.4 576.2,250.7 576.2,239.2 586.2,233.5 596.1,239.2 	"/>
	<polygon class="st2" points="576.3,285 566.3,290.8 556.4,285 556.4,273.6 566.3,267.8 576.3,273.6 	"/>
	<polygon class="st2" points="586.2,267.8 576.3,273.6 566.3,267.8 566.3,256.4 576.3,250.7 586.2,256.4 	"/>
	<polygon class="st2" points="576.3,250.7 566.3,256.4 556.4,250.7 556.4,239.2 566.3,233.5 576.3,239.2 	"/>
	<polygon class="st2" points="586.2,233.5 576.3,239.2 566.3,233.5 566.3,222 576.3,216.3 586.2,222 	"/>
	<polygon class="st2" points="556.4,285 546.5,290.8 536.6,285 536.6,273.6 546.5,267.8 556.4,273.6 	"/>
	<polygon class="st2" points="566.4,267.8 556.4,273.6 546.5,267.8 546.5,256.4 556.4,250.7 566.4,256.4 	"/>
	<polygon class="st2" points="556.4,250.7 546.5,256.4 536.6,250.7 536.6,239.2 546.5,233.5 556.4,239.2 	"/>
	<polygon class="st2" points="566.4,233.5 556.4,239.2 546.5,233.5 546.5,222 556.4,216.3 566.4,222 	"/>
	<polygon class="st2" points="546.5,267.8 536.6,273.6 526.7,267.8 526.7,256.4 536.6,250.7 546.5,256.4 	"/>
	<polygon class="st2" points="536.6,250.7 526.7,256.4 516.8,250.7 516.8,239.2 526.7,233.5 536.6,239.2 	"/>
	<polygon class="st2" points="546.5,233.5 536.6,239.2 526.7,233.5 526.7,222 536.6,216.3 546.5,222 	"/>
	<polygon class="st2" points="536.6,216.3 526.7,222 516.8,216.3 516.8,204.8 526.7,199.1 536.6,204.8 	"/>
	<polygon class="st2" points="526.7,233.5 516.8,239.2 506.9,233.5 506.9,222 516.8,216.3 526.7,222 	"/>
	<polygon class="st2" points="516.8,216.3 506.9,222 496.9,216.3 496.9,204.8 506.9,199.1 516.8,204.8 	"/>
</g>
<g id="QC">
	<polygon class="st3" points="596.1,319.4 586.2,325.1 576.2,319.4 576.2,308 586.2,302.2 596.1,308 	"/>
	<polygon class="st3" points="606,302.2 596.1,308 586.2,302.2 586.2,290.8 596.1,285 606,290.8 	"/>
	<polygon class="st3" points="596.1,285 586.2,290.8 576.2,285 576.2,273.6 586.2,267.8 596.1,273.6 	"/>
	<polygon class="st3" points="576.3,319.4 566.3,325.1 556.4,319.4 556.4,308 566.3,302.2 576.3,308 	"/>
	<polygon class="st3" points="586.2,302.2 576.3,308 566.3,302.2 566.3,290.8 576.3,285 586.2,290.8 	"/>
	<polygon class="st3" points="556.4,353.8 546.5,359.5 536.6,353.8 536.6,342.3 546.5,336.6 556.4,342.3 	"/>
	<polygon class="st3" points="566.4,336.6 556.4,342.3 546.5,336.6 546.5,325.1 556.4,319.4 566.4,325.1 	"/>
	<polygon class="st3" points="556.4,319.4 546.5,325.1 536.6,319.4 536.6,308 546.5,302.2 556.4,308 	"/>
	<polygon class="st3" points="566.4,302.2 556.4,308 546.5,302.2 546.5,290.8 556.4,285 566.4,290.8 	"/>
	<polygon class="st3" points="546.5,405.4 536.6,411.1 526.7,405.4 526.7,393.9 536.6,388.2 546.5,393.9 	"/>
	<polygon class="st3" points="536.6,388.2 526.7,393.9 516.8,388.2 516.8,376.7 526.7,371 536.6,376.7 	"/>
	<polygon class="st3" points="546.5,371 536.6,376.7 526.7,371 526.7,359.5 536.6,353.8 546.5,359.5 	"/>
	<polygon class="st3" points="536.6,353.8 526.7,359.5 516.8,353.8 516.8,342.3 526.7,336.6 536.6,342.3 	"/>
	<polygon class="st3" points="546.5,336.6 536.6,342.3 526.7,336.6 526.7,325.1 536.6,319.4 546.5,325.1 	"/>
	<polygon class="st3" points="536.6,319.4 526.7,325.1 516.8,319.4 516.8,308 526.7,302.2 536.6,308 	"/>
	<polygon class="st3" points="546.5,302.2 536.6,308 526.7,302.2 526.7,290.8 536.6,285 546.5,290.8 	"/>
	<polygon class="st3" points="536.6,285 526.7,290.8 516.8,285 516.8,273.6 526.7,267.8 536.6,273.6 	"/>
	<polygon class="st3" points="516.8,422.6 506.9,428.3 496.9,422.6 496.9,411.1 506.9,405.4 516.8,411.1 	"/>
	<polygon class="st3" points="526.7,405.4 516.8,411.1 506.9,405.4 506.9,393.9 516.8,388.2 526.7,393.9 	"/>
	<polygon class="st3" points="516.8,388.2 506.9,393.9 496.9,388.2 496.9,376.7 506.9,371 516.8,376.7 	"/>
	<polygon class="st3" points="526.7,371 516.8,376.7 506.9,371 506.9,359.5 516.8,353.8 526.7,359.5 	"/>
	<polygon class="st3" points="516.8,353.8 506.9,359.5 496.9,353.8 496.9,342.3 506.9,336.6 516.8,342.3 	"/>
	<polygon class="st3" points="526.7,336.6 516.8,342.3 506.9,336.6 506.9,325.1 516.8,319.4 526.7,325.1 	"/>
	<polygon class="st3" points="516.8,319.4 506.9,325.1 496.9,319.4 496.9,308 506.9,302.2 516.8,308 	"/>
	<polygon class="st3" points="526.7,302.2 516.8,308 506.9,302.2 506.9,290.8 516.8,285 526.7,290.8 	"/>
	<polygon class="st3" points="516.8,285 506.9,290.8 496.9,285 496.9,273.6 506.9,267.8 516.8,273.6 	"/>
	<polygon class="st3" points="526.7,267.8 516.8,273.6 506.9,267.8 506.9,256.4 516.8,250.7 526.7,256.4 	"/>
	<polygon class="st3" points="516.8,250.7 506.9,256.4 496.9,250.7 496.9,239.2 506.9,233.5 516.8,239.2 	"/>
	<polygon class="st3" points="497,422.6 487,428.3 477.1,422.6 477.1,411.1 487,405.4 497,411.1 	"/>
	<polygon class="st3" points="506.9,405.4 497,411.1 487,405.4 487,393.9 497,388.2 506.9,393.9 	"/>
	<polygon class="st3" points="497,388.2 487,393.9 477.1,388.2 477.1,376.7 487,371 497,376.7 	"/>
	<polygon class="st3" points="506.9,371 497,376.7 487,371 487,359.5 497,353.8 506.9,359.5 	"/>
	<polygon class="st3" points="497,353.8 487,359.5 477.1,353.8 477.1,342.3 487,336.6 497,342.3 	"/>
	<polygon class="st3" points="506.9,336.6 497,342.3 487,336.6 487,325.1 497,319.4 506.9,325.1 	"/>
	<polygon class="st3" points="497,319.4 487,325.1 477.1,319.4 477.1,308 487,302.2 497,308 	"/>
	<polygon class="st3" points="506.9,302.2 497,308 487,302.2 487,290.8 497,285 506.9,290.8 	"/>
	<polygon class="st3" points="497,285 487,290.8 477.1,285 477.1,273.6 487,267.8 497,273.6 	"/>
	<polygon class="st3" points="506.9,267.8 497,273.6 487,267.8 487,256.4 497,250.7 506.9,256.4 	"/>
	<polygon class="st3" points="497,250.7 487,256.4 477.1,250.7 477.1,239.2 487,233.5 497,239.2 	"/>
	<polygon class="st3" points="506.9,233.5 497,239.2 487,233.5 487,222 497,216.3 506.9,222 	"/>
	<polygon class="st3" points="487.1,405.4 477.1,411.1 467.2,405.4 467.2,393.9 477.1,388.2 487.1,393.9 	"/>
	<polygon class="st3" points="477.1,388.2 467.2,393.9 457.3,388.2 457.3,376.7 467.2,371 477.1,376.7 	"/>
	<polygon class="st3" points="487.1,371 477.1,376.7 467.2,371 467.2,359.5 477.1,353.8 487.1,359.5 	"/>
	<polygon class="st3" points="477.1,353.8 467.2,359.5 457.3,353.8 457.3,342.3 467.2,336.6 477.1,342.3 	"/>
	<polygon class="st3" points="487.1,336.6 477.1,342.3 467.2,336.6 467.2,325.1 477.1,319.4 487.1,325.1 	"/>
	<polygon class="st3" points="477.1,319.4 467.2,325.1 457.3,319.4 457.3,308 467.2,302.2 477.1,308 	"/>
	<polygon class="st3" points="487.1,302.2 477.1,308 467.2,302.2 467.2,290.8 477.1,285 487.1,290.8 	"/>
	<polygon class="st3" points="477.1,285 467.2,290.8 457.3,285 457.3,273.6 467.2,267.8 477.1,273.6 	"/>
	<polygon class="st3" points="487.1,267.8 477.1,273.6 467.2,267.8 467.2,256.4 477.1,250.7 487.1,256.4 	"/>
	<polygon class="st3" points="477.1,250.7 467.2,256.4 457.3,250.7 457.3,239.2 467.2,233.5 477.1,239.2 	"/>
	<polygon class="st3" points="487.1,233.5 477.1,239.2 467.2,233.5 467.2,222 477.1,216.3 487.1,222 	"/>
	<polygon class="st3" points="477.1,216.3 467.2,222 457.3,216.3 457.3,204.8 467.2,199.1 477.1,204.8 	"/>
	<polygon class="st3" points="467.2,371 457.3,376.7 447.4,371 447.4,359.5 457.3,353.8 467.2,359.5 	"/>
	<polygon class="st3" points="467.2,336.6 457.3,342.3 447.4,336.6 447.4,325.1 457.3,319.4 467.2,325.1 	"/>
	<polygon class="st3" points="457.3,319.4 447.4,325.1 437.5,319.4 437.5,308 447.4,302.2 457.3,308 	"/>
	<polygon class="st3" points="467.2,302.2 457.3,308 447.4,302.2 447.4,290.8 457.3,285 467.2,290.8 	"/>
	<polygon class="st3" points="457.3,285 447.4,290.8 437.5,285 437.5,273.6 447.4,267.8 457.3,273.6 	"/>
	<polygon class="st3" points="467.2,267.8 457.3,273.6 447.4,267.8 447.4,256.4 457.3,250.7 467.2,256.4 	"/>
	<polygon class="st3" points="457.3,250.7 447.4,256.4 437.5,250.7 437.5,239.2 447.4,233.5 457.3,239.2 	"/>
	<polygon class="st3" points="467.2,233.5 457.3,239.2 447.4,233.5 447.4,222 457.3,216.3 467.2,222 	"/>
	<polygon class="st3" points="457.3,216.3 447.4,222 437.5,216.3 437.5,204.8 447.4,199.1 457.3,204.8 	"/>
	<polygon class="st3" points="447.4,302.2 437.5,308 427.5,302.2 427.5,290.8 437.5,285 447.4,290.8 	"/>
	<polygon class="st3" points="437.5,285 427.6,290.8 417.6,285 417.6,273.6 427.6,267.8 437.5,273.6 	"/>
	<polygon class="st3" points="447.4,267.8 437.5,273.6 427.5,267.8 427.5,256.4 437.5,250.7 447.4,256.4 	"/>
	<polygon class="st3" points="437.5,250.7 427.6,256.4 417.6,250.7 417.6,239.2 427.6,233.5 437.5,239.2 	"/>
	<polygon class="st3" points="447.4,233.5 437.5,239.2 427.5,233.5 427.5,222 437.5,216.3 447.4,222 	"/>
</g>
<g id="ON">
	<polygon class="st4" points="477.1,422.6 467.2,428.3 457.3,422.6 457.3,411.1 467.2,405.4 477.1,411.1 	"/>
	<polygon class="st4" points="467.2,439.8 457.3,445.5 447.4,439.8 447.4,428.3 457.3,422.6 467.2,428.3 	"/>
	<polygon class="st4" points="457.3,422.6 447.4,428.3 437.5,422.6 437.5,411.1 447.4,405.4 457.3,411.1 	"/>
	<polygon class="st4" points="467.2,405.4 457.3,411.1 447.4,405.4 447.4,393.9 457.3,388.2 467.2,393.9 	"/>
	<polygon class="st4" points="457.3,388.2 447.4,393.9 437.5,388.2 437.5,376.7 447.4,371 457.3,376.7 	"/>
	<polygon class="st4" points="457.3,353.8 447.4,359.5 437.5,353.8 437.5,342.3 447.4,336.6 457.3,342.3 	"/>
	<polygon class="st4" points="437.5,422.6 427.6,428.3 417.6,422.6 417.6,411.1 427.6,405.4 437.5,411.1 	"/>
	<polygon class="st4" points="447.4,405.4 437.5,411.1 427.5,405.4 427.5,393.9 437.5,388.2 447.4,393.9 	"/>
	<polygon class="st4" points="437.5,388.2 427.6,393.9 417.6,388.2 417.6,376.7 427.6,371 437.5,376.7 	"/>
	<polygon class="st4" points="447.4,371 437.5,376.7 427.5,371 427.5,359.5 437.5,353.8 447.4,359.5 	"/>
	<polygon class="st4" points="437.5,353.8 427.6,359.5 417.6,353.8 417.6,342.3 427.6,336.6 437.5,342.3 	"/>
	<polygon class="st4" points="427.6,405.4 417.6,411.1 407.7,405.4 407.7,393.9 417.6,388.2 427.6,393.9 	"/>
	<polygon class="st4" points="417.7,388.2 407.7,393.9 397.8,388.2 397.8,376.7 407.7,371 417.7,376.7 	"/>
	<polygon class="st4" points="427.6,371 417.6,376.7 407.7,371 407.7,359.5 417.6,353.8 427.6,359.5 	"/>
	<polygon class="st4" points="417.7,353.8 407.7,359.5 397.8,353.8 397.8,342.3 407.7,336.6 417.7,342.3 	"/>
	<polygon class="st4" points="427.6,336.6 417.6,342.3 407.7,336.6 407.7,325.1 417.6,319.4 427.6,325.1 	"/>
	<polygon class="st4" points="417.7,319.4 407.7,325.1 397.8,319.4 397.8,308 407.7,302.2 417.7,308 	"/>
	<polygon class="st4" points="407.7,405.4 397.8,411.1 387.9,405.4 387.9,393.9 397.8,388.2 407.7,393.9 	"/>
	<polygon class="st4" points="397.8,388.2 387.9,393.9 378,388.2 378,376.7 387.9,371 397.8,376.7 	"/>
	<polygon class="st4" points="407.7,371 397.8,376.7 387.9,371 387.9,359.5 397.8,353.8 407.7,359.5 	"/>
	<polygon class="st4" points="397.8,353.8 387.9,359.5 378,353.8 378,342.3 387.9,336.6 397.8,342.3 	"/>
	<polygon class="st4" points="407.7,336.6 397.8,342.3 387.9,336.6 387.9,325.1 397.8,319.4 407.7,325.1 	"/>
	<polygon class="st4" points="397.8,319.4 387.9,325.1 378,319.4 378,308 387.9,302.2 397.8,308 	"/>
	<polygon class="st4" points="387.9,405.4 378,411.1 368.1,405.4 368.1,393.9 378,388.2 387.9,393.9 	"/>
	<polygon class="st4" points="378,388.2 368.1,393.9 358.2,388.2 358.2,376.7 368.1,371 378,376.7 	"/>
	<polygon class="st4" points="387.9,371 378,376.7 368.1,371 368.1,359.5 378,353.8 387.9,359.5 	"/>
	<polygon class="st4" points="378,353.8 368.1,359.5 358.2,353.8 358.2,342.3 368.1,336.6 378,342.3 	"/>
	<polygon class="st4" points="387.9,336.6 378,342.3 368.1,336.6 368.1,325.1 378,319.4 387.9,325.1 	"/>
	<polygon class="st4" points="378,319.4 368.1,325.1 358.2,319.4 358.2,308 368.1,302.2 378,308 	"/>
	<polygon class="st4" points="368.1,405.4 358.2,411.1 348.2,405.4 348.2,393.9 358.2,388.2 368.1,393.9 	"/>
	<polygon class="st4" points="358.2,388.2 348.3,393.9 338.3,388.2 338.3,376.7 348.3,371 358.2,376.7 	"/>
	<polygon class="st4" points="368.1,371 358.2,376.7 348.2,371 348.2,359.5 358.2,353.8 368.1,359.5 	"/>
	<polygon class="st4" points="358.2,353.8 348.3,359.5 338.3,353.8 338.3,342.3 348.3,336.6 358.2,342.3 	"/>
	<polygon class="st4" points="368.1,336.6 358.2,342.3 348.2,336.6 348.2,325.1 358.2,319.4 368.1,325.1 	"/>
	<polygon class="st4" points="348.3,405.4 338.3,411.1 328.4,405.4 328.4,393.9 338.3,388.2 348.3,393.9 	"/>
	<polygon class="st4" points="348.3,371 338.3,376.7 328.4,371 328.4,359.5 338.3,353.8 348.3,359.5 	"/>
</g>
<g id="MB">
	<polygon class="st5" points="358.2,319.4 348.3,325.1 338.3,319.4 338.3,308 348.3,302.2 358.2,308 	"/>
	<polygon class="st5" points="368.1,302.2 358.2,308 348.2,302.2 348.2,290.8 358.2,285 368.1,290.8 	"/>
	<polygon class="st5" points="358.2,285 348.3,290.8 338.3,285 338.3,273.6 348.3,267.8 358.2,273.6 	"/>
	<polygon class="st5" points="338.3,388.2 328.4,393.9 318.5,388.2 318.5,376.7 328.4,371 338.3,376.7 	"/>
	<polygon class="st5" points="338.3,353.8 328.4,359.5 318.5,353.8 318.5,342.3 328.4,336.6 338.3,342.3 	"/>
	<polygon class="st5" points="348.3,336.6 338.3,342.3 328.4,336.6 328.4,325.1 338.3,319.4 348.3,325.1 	"/>
	<polygon class="st5" points="338.3,319.4 328.4,325.1 318.5,319.4 318.5,308 328.4,302.2 338.3,308 	"/>
	<polygon class="st5" points="348.3,302.2 338.3,308 328.4,302.2 328.4,290.8 338.3,285 348.3,290.8 	"/>
	<polygon class="st5" points="338.3,285 328.4,290.8 318.5,285 318.5,273.6 328.4,267.8 338.3,273.6 	"/>
	<polygon class="st5" points="328.4,405.4 318.5,411.1 308.6,405.4 308.6,393.9 318.5,388.2 328.4,393.9 	"/>
	<polygon class="st5" points="318.5,388.2 308.6,393.9 298.7,388.2 298.7,376.7 308.6,371 318.5,376.7 	"/>
	<polygon class="st5" points="328.4,371 318.5,376.7 308.6,371 308.6,359.5 318.5,353.8 328.4,359.5 	"/>
	<polygon class="st5" points="318.5,353.8 308.6,359.5 298.7,353.8 298.7,342.3 308.6,336.6 318.5,342.3 	"/>
	<polygon class="st5" points="328.4,336.6 318.5,342.3 308.6,336.6 308.6,325.1 318.5,319.4 328.4,325.1 	"/>
	<polygon class="st5" points="318.5,319.4 308.6,325.1 298.7,319.4 298.7,308 308.6,302.2 318.5,308 	"/>
	<polygon class="st5" points="328.4,302.2 318.5,308 308.6,302.2 308.6,290.8 318.5,285 328.4,290.8 	"/>
	<polygon class="st5" points="318.5,285 308.6,290.8 298.7,285 298.7,273.6 308.6,267.8 318.5,273.6 	"/>
	<polygon class="st5" points="328.4,267.8 318.5,273.6 308.6,267.8 308.6,256.4 318.5,250.7 328.4,256.4 	"/>
	<polygon class="st5" points="308.6,405.4 298.7,411.1 288.8,405.4 288.8,393.9 298.7,388.2 308.6,393.9 	"/>
	<polygon class="st5" points="298.7,388.2 288.8,393.9 278.8,388.2 278.8,376.7 288.8,371 298.7,376.7 	"/>
	<polygon class="st5" points="308.6,371 298.7,376.7 288.8,371 288.8,359.5 298.7,353.8 308.6,359.5 	"/>
	<polygon class="st5" points="298.7,353.8 288.8,359.5 278.8,353.8 278.8,342.3 288.8,336.6 298.7,342.3 	"/>
	<polygon class="st5" points="308.6,336.6 298.7,342.3 288.8,336.6 288.8,325.1 298.7,319.4 308.6,325.1 	"/>
	<polygon class="st5" points="298.7,319.4 288.8,325.1 278.8,319.4 278.8,308 288.8,302.2 298.7,308 	"/>
	<polygon class="st5" points="308.6,302.2 298.7,308 288.8,302.2 288.8,290.8 298.7,285 308.6,290.8 	"/>
	<polygon class="st5" points="298.7,285 288.8,290.8 278.8,285 278.8,273.6 288.8,267.8 298.7,273.6 	"/>
	<polygon class="st5" points="308.6,267.8 298.7,273.6 288.8,267.8 288.8,256.4 298.7,250.7 308.6,256.4 	"/>
	<polygon class="st5" points="288.8,405.4 278.9,411.1 268.9,405.4 268.9,393.9 278.9,388.2 288.8,393.9 	"/>
</g>
<g id="SK">
	<polygon class="st6" points="278.9,388.2 268.9,393.9 259,388.2 259,376.7 268.9,371 278.9,376.7 	"/>
	<polygon class="st6" points="288.8,371 278.9,376.7 268.9,371 268.9,359.5 278.9,353.8 288.8,359.5 	"/>
	<polygon class="st6" points="278.9,353.8 268.9,359.5 259,353.8 259,342.3 268.9,336.6 278.9,342.3 	"/>
	<polygon class="st6" points="288.8,336.6 278.9,342.3 268.9,336.6 268.9,325.1 278.9,319.4 288.8,325.1 	"/>
	<polygon class="st6" points="278.9,319.4 268.9,325.1 259,319.4 259,308 268.9,302.2 278.9,308 	"/>
	<polygon class="st6" points="288.8,302.2 278.9,308 268.9,302.2 268.9,290.8 278.9,285 288.8,290.8 	"/>
	<polygon class="st6" points="278.9,285 268.9,290.8 259,285 259,273.6 268.9,267.8 278.9,273.6 	"/>
	<polygon class="st6" points="288.8,267.8 278.9,273.6 268.9,267.8 268.9,256.4 278.9,250.7 288.8,256.4 	"/>
	<polygon class="st6" points="269,405.4 259,411.1 249.1,405.4 249.1,393.9 259,388.2 269,393.9 	"/>
	<polygon class="st6" points="259,388.2 249.1,393.9 239.2,388.2 239.2,376.7 249.1,371 259,376.7 	"/>
	<polygon class="st6" points="269,371 259,376.7 249.1,371 249.1,359.5 259,353.8 269,359.5 	"/>
	<polygon class="st6" points="259,353.8 249.1,359.5 239.2,353.8 239.2,342.3 249.1,336.6 259,342.3 	"/>
	<polygon class="st6" points="269,336.6 259,342.3 249.1,336.6 249.1,325.1 259,319.4 269,325.1 	"/>
	<polygon class="st6" points="259,319.4 249.1,325.1 239.2,319.4 239.2,308 249.1,302.2 259,308 	"/>
	<polygon class="st6" points="269,302.2 259,308 249.1,302.2 249.1,290.8 259,285 269,290.8 	"/>
	<polygon class="st6" points="259,285 249.1,290.8 239.2,285 239.2,273.6 249.1,267.8 259,273.6 	"/>
	<polygon class="st6" points="269,267.8 259,273.6 249.1,267.8 249.1,256.4 259,250.7 269,256.4 	"/>
	<polygon class="st6" points="249.1,405.4 239.2,411.1 229.3,405.4 229.3,393.9 239.2,388.2 249.1,393.9 	"/>
	<polygon class="st6" points="239.2,388.2 229.3,393.9 219.4,388.2 219.4,376.7 229.3,371 239.2,376.7 	"/>
	<polygon class="st6" points="249.1,371 239.2,376.7 229.3,371 229.3,359.5 239.2,353.8 249.1,359.5 	"/>
	<polygon class="st6" points="239.2,353.8 229.3,359.5 219.4,353.8 219.4,342.3 229.3,336.6 239.2,342.3 	"/>
	<polygon class="st6" points="249.1,336.6 239.2,342.3 229.3,336.6 229.3,325.1 239.2,319.4 249.1,325.1 	"/>
	<polygon class="st6" points="239.2,319.4 229.3,325.1 219.4,319.4 219.4,308 229.3,302.2 239.2,308 	"/>
	<polygon class="st6" points="249.1,302.2 239.2,308 229.3,302.2 229.3,290.8 239.2,285 249.1,290.8 	"/>
	<polygon class="st6" points="239.2,285 229.3,290.8 219.4,285 219.4,273.6 229.3,267.8 239.2,273.6 	"/>
	<polygon class="st6" points="249.1,267.8 239.2,273.6 229.3,267.8 229.3,256.4 239.2,250.7 249.1,256.4 	"/>
	<polygon class="st6" points="229.3,405.4 219.4,411.1 209.5,405.4 209.5,393.9 219.4,388.2 229.3,393.9 	"/>
	<polygon class="st6" points="219.4,388.2 209.5,393.9 199.5,388.2 199.5,376.7 209.5,371 219.4,376.7 	"/>
	<polygon class="st6" points="229.3,371 219.4,376.7 209.5,371 209.5,359.5 219.4,353.8 229.3,359.5 	"/>
</g>
<g id="NU">
	<polygon class="st7" points="417.7,216.3 407.7,222 397.8,216.3 397.8,204.8 407.7,199.1 417.7,204.8 	"/>
	<polygon class="st7" points="397.8,216.3 387.9,222 378,216.3 378,204.8 387.9,199.1 397.8,204.8 	"/>
	<polygon class="st7" points="407.7,199.1 397.8,204.8 387.9,199.1 387.9,187.6 397.8,181.9 407.7,187.6 	"/>
	<polygon class="st7" points="397.8,181.9 387.9,187.6 378,181.9 378,170.4 387.9,164.7 397.8,170.4 	"/>
	<polygon class="st7" points="378,216.3 368.1,222 358.2,216.3 358.2,204.8 368.1,199.1 378,204.8 	"/>
	<polygon class="st7" points="387.9,199.1 378,204.8 368.1,199.1 368.1,187.6 378,181.9 387.9,187.6 	"/>
	<polygon class="st7" points="378,181.9 368.1,187.6 358.2,181.9 358.2,170.4 368.1,164.7 378,170.4 	"/>
	<polygon class="st7" points="387.9,164.7 378,170.4 368.1,164.7 368.1,153.2 378,147.5 387.9,153.2 	"/>
	<polygon class="st7" points="378,147.5 368.1,153.2 358.2,147.5 358.2,136 368.1,130.3 378,136 	"/>
	<polygon class="st7" points="358.2,216.3 348.3,222 338.3,216.3 338.3,204.8 348.3,199.1 358.2,204.8 	"/>
	<polygon class="st7" points="368.1,199.1 358.2,204.8 348.2,199.1 348.2,187.6 358.2,181.9 368.1,187.6 	"/>
	<polygon class="st7" points="358.2,181.9 348.3,187.6 338.3,181.9 338.3,170.4 348.3,164.7 358.2,170.4 	"/>
	<polygon class="st7" points="368.1,164.7 358.2,170.4 348.2,164.7 348.2,153.2 358.2,147.5 368.1,153.2 	"/>
	<polygon class="st7" points="358.2,147.5 348.3,153.2 338.3,147.5 338.3,136 348.3,130.3 358.2,136 	"/>
	<polygon class="st7" points="368.1,130.3 358.2,136 348.2,130.3 348.2,118.9 358.2,113.1 368.1,118.9 	"/>
	<polygon class="st7" points="358.2,113.1 348.3,118.9 338.3,113.1 338.3,101.7 348.3,95.9 358.2,101.7 	"/>
	<polygon class="st7" points="338.3,250.7 328.4,256.4 318.5,250.7 318.5,239.2 328.4,233.5 338.3,239.2 	"/>
	<polygon class="st7" points="348.3,233.5 338.3,239.2 328.4,233.5 328.4,222 338.3,216.3 348.3,222 	"/>
	<polygon class="st7" points="338.3,216.3 328.4,222 318.5,216.3 318.5,204.8 328.4,199.1 338.3,204.8 	"/>
	<polygon class="st7" points="348.3,199.1 338.3,204.8 328.4,199.1 328.4,187.6 338.3,181.9 348.3,187.6 	"/>
	<polygon class="st7" points="338.3,181.9 328.4,187.6 318.5,181.9 318.5,170.4 328.4,164.7 338.3,170.4 	"/>
	<polygon class="st7" points="348.3,164.7 338.3,170.4 328.4,164.7 328.4,153.2 338.3,147.5 348.3,153.2 	"/>
	<polygon class="st7" points="338.3,147.5 328.4,153.2 318.5,147.5 318.5,136 328.4,130.3 338.3,136 	"/>
	<polygon class="st7" points="348.3,130.3 338.3,136 328.4,130.3 328.4,118.9 338.3,113.1 348.3,118.9 	"/>
	<polygon class="st7" points="338.3,113.1 328.4,118.9 318.5,113.1 318.5,101.7 328.4,95.9 338.3,101.7 	"/>
	<polygon class="st7" points="318.5,250.7 308.6,256.4 298.7,250.7 298.7,239.2 308.6,233.5 318.5,239.2 	"/>
	<polygon class="st7" points="328.4,233.5 318.5,239.2 308.6,233.5 308.6,222 318.5,216.3 328.4,222 	"/>
	<polygon class="st7" points="318.5,216.3 308.6,222 298.7,216.3 298.7,204.8 308.6,199.1 318.5,204.8 	"/>
	<polygon class="st7" points="328.4,199.1 318.5,204.8 308.6,199.1 308.6,187.6 318.5,181.9 328.4,187.6 	"/>
	<polygon class="st7" points="318.5,181.9 308.6,187.6 298.7,181.9 298.7,170.4 308.6,164.7 318.5,170.4 	"/>
	<polygon class="st7" points="328.4,164.7 318.5,170.4 308.6,164.7 308.6,153.2 318.5,147.5 328.4,153.2 	"/>
	<polygon class="st7" points="318.5,147.5 308.6,153.2 298.7,147.5 298.7,136 308.6,130.3 318.5,136 	"/>
	<polygon class="st7" points="328.4,130.3 318.5,136 308.6,130.3 308.6,118.9 318.5,113.1 328.4,118.9 	"/>
	<polygon class="st7" points="318.5,113.1 308.6,118.9 298.7,113.1 298.7,101.7 308.6,95.9 318.5,101.7 	"/>
	<polygon class="st7" points="298.7,250.7 288.8,256.4 278.8,250.7 278.8,239.2 288.8,233.5 298.7,239.2 	"/>
	<polygon class="st7" points="308.6,233.5 298.7,239.2 288.8,233.5 288.8,222 298.7,216.3 308.6,222 	"/>
	<polygon class="st7" points="298.7,216.3 288.8,222 278.8,216.3 278.8,204.8 288.8,199.1 298.7,204.8 	"/>
	<polygon class="st7" points="308.6,199.1 298.7,204.8 288.8,199.1 288.8,187.6 298.7,181.9 308.6,187.6 	"/>
	<polygon class="st7" points="298.7,181.9 288.8,187.6 278.8,181.9 278.8,170.4 288.8,164.7 298.7,170.4 	"/>
	<polygon class="st7" points="308.6,164.7 298.7,170.4 288.8,164.7 288.8,153.2 298.7,147.5 308.6,153.2 	"/>
	<polygon class="st7" points="298.7,147.5 288.8,153.2 278.8,147.5 278.8,136 288.8,130.3 298.7,136 	"/>
	<polygon class="st7" points="308.6,130.3 298.7,136 288.8,130.3 288.8,118.9 298.7,113.1 308.6,118.9 	"/>
	<polygon class="st7" points="298.7,113.1 288.8,118.9 278.8,113.1 278.8,101.7 288.8,95.9 298.7,101.7 	"/>
	<polygon class="st7" points="308.6,95.9 298.7,101.7 288.8,95.9 288.8,84.5 298.7,78.7 308.6,84.5 	"/>
	<polygon class="st7" points="288.8,199.1 278.9,204.8 268.9,199.1 268.9,187.6 278.9,181.9 288.8,187.6 	"/>
	<polygon class="st7" points="278.9,181.9 268.9,187.6 259,181.9 259,170.4 268.9,164.7 278.9,170.4 	"/>
	<polygon class="st7" points="288.8,164.7 278.9,170.4 268.9,164.7 268.9,153.2 278.9,147.5 288.8,153.2 	"/>
	<polygon class="st7" points="278.9,147.5 268.9,153.2 259,147.5 259,136 268.9,130.3 278.9,136 	"/>
	<polygon class="st7" points="288.8,130.3 278.9,136 268.9,130.3 268.9,118.9 278.9,113.1 288.8,118.9 	"/>
	<polygon class="st7" points="278.9,113.1 268.9,118.9 259,113.1 259,101.7 268.9,95.9 278.9,101.7 	"/>
	<polygon class="st7" points="288.8,95.9 278.9,101.7 268.9,95.9 268.9,84.5 278.9,78.7 288.8,84.5 	"/>
	<polygon class="st7" points="278.9,78.7 268.9,84.5 259,78.7 259,67.3 268.9,61.5 278.9,67.3 	"/>
	<polygon class="st7" points="259,181.9 249.1,187.6 239.2,181.9 239.2,170.4 249.1,164.7 259,170.4 	"/>
	<polygon class="st7" points="269,164.7 259,170.4 249.1,164.7 249.1,153.2 259,147.5 269,153.2 	"/>
	<polygon class="st7" points="259,147.5 249.1,153.2 239.2,147.5 239.2,136 249.1,130.3 259,136 	"/>
	<polygon class="st7" points="269,130.3 259,136 249.1,130.3 249.1,118.9 259,113.1 269,118.9 	"/>
	<polygon class="st7" points="259,113.1 249.1,118.9 239.2,113.1 239.2,101.7 249.1,95.9 259,101.7 	"/>
	<polygon class="st7" points="269,95.9 259,101.7 249.1,95.9 249.1,84.5 259,78.7 269,84.5 	"/>
	<polygon class="st7" points="259,78.7 249.1,84.5 239.2,78.7 239.2,67.3 249.1,61.5 259,67.3 	"/>
	<polygon class="st7" points="249.1,164.7 239.2,170.4 229.3,164.7 229.3,153.2 239.2,147.5 249.1,153.2 	"/>
	<polygon class="st7" points="249.1,130.3 239.2,136 229.3,130.3 229.3,118.9 239.2,113.1 249.1,118.9 	"/>
	<polygon class="st7" points="239.2,113.1 229.3,118.9 219.4,113.1 219.4,101.7 229.3,95.9 239.2,101.7 	"/>
	<polygon class="st7" points="249.1,95.9 239.2,101.7 229.3,95.9 229.3,84.5 239.2,78.7 249.1,84.5 	"/>
	<polygon class="st7" points="239.2,78.7 229.3,84.5 219.4,78.7 219.4,67.3 229.3,61.5 239.2,67.3 	"/>
	<polygon class="st7" points="229.3,95.9 219.4,101.7 209.5,95.9 209.5,84.5 219.4,78.7 229.3,84.5 	"/>
</g>
<g id="AB">
	<polygon class="st8" points="219.4,353.8 209.5,359.5 199.5,353.8 199.5,342.3 209.5,336.6 219.4,342.3 	"/>
	<polygon class="st8" points="229.3,336.6 219.4,342.3 209.5,336.6 209.5,325.1 219.4,319.4 229.3,325.1 	"/>
	<polygon class="st8" points="219.4,319.4 209.5,325.1 199.5,319.4 199.5,308 209.5,302.2 219.4,308 	"/>
	<polygon class="st8" points="229.3,302.2 219.4,308 209.5,302.2 209.5,290.8 219.4,285 229.3,290.8 	"/>
	<polygon class="st8" points="219.4,285 209.5,290.8 199.5,285 199.5,273.6 209.5,267.8 219.4,273.6 	"/>
	<polygon class="st8" points="229.3,267.8 219.4,273.6 209.5,267.8 209.5,256.4 219.4,250.7 229.3,256.4 	"/>
	<polygon class="st8" points="219.4,250.7 209.5,256.4 199.5,250.7 199.5,239.2 209.5,233.5 219.4,239.2 	"/>
	<polygon class="st8" points="199.6,388.2 189.6,393.9 179.7,388.2 179.7,376.7 189.6,371 199.6,376.7 	"/>
	<polygon class="st8" points="209.5,371 199.5,376.7 189.6,371 189.6,359.5 199.5,353.8 209.5,359.5 	"/>
	<polygon class="st8" points="199.6,353.8 189.6,359.5 179.7,353.8 179.7,342.3 189.6,336.6 199.6,342.3 	"/>
	<polygon class="st8" points="209.5,336.6 199.5,342.3 189.6,336.6 189.6,325.1 199.5,319.4 209.5,325.1 	"/>
	<polygon class="st8" points="199.6,319.4 189.6,325.1 179.7,319.4 179.7,308 189.6,302.2 199.6,308 	"/>
	<polygon class="st8" points="209.5,302.2 199.5,308 189.6,302.2 189.6,290.8 199.5,285 209.5,290.8 	"/>
	<polygon class="st8" points="199.6,285 189.6,290.8 179.7,285 179.7,273.6 189.6,267.8 199.6,273.6 	"/>
	<polygon class="st8" points="209.5,267.8 199.5,273.6 189.6,267.8 189.6,256.4 199.5,250.7 209.5,256.4 	"/>
	<polygon class="st8" points="199.6,250.7 189.6,256.4 179.7,250.7 179.7,239.2 189.6,233.5 199.6,239.2 	"/>
	<polygon class="st8" points="179.7,388.2 169.8,393.9 159.9,388.2 159.9,376.7 169.8,371 179.7,376.7 	"/>
	<polygon class="st8" points="189.6,371 179.7,376.7 169.8,371 169.8,359.5 179.7,353.8 189.6,359.5 	"/>
	<polygon class="st8" points="179.7,353.8 169.8,359.5 159.9,353.8 159.9,342.3 169.8,336.6 179.7,342.3 	"/>
	<polygon class="st8" points="189.6,336.6 179.7,342.3 169.8,336.6 169.8,325.1 179.7,319.4 189.6,325.1 	"/>
	<polygon class="st8" points="179.7,319.4 169.8,325.1 159.9,319.4 159.9,308 169.8,302.2 179.7,308 	"/>
	<polygon class="st8" points="189.6,302.2 179.7,308 169.8,302.2 169.8,290.8 179.7,285 189.6,290.8 	"/>
	<polygon class="st8" points="179.7,285 169.8,290.8 159.9,285 159.9,273.6 169.8,267.8 179.7,273.6 	"/>
	<polygon class="st8" points="189.6,267.8 179.7,273.6 169.8,267.8 169.8,256.4 179.7,250.7 189.6,256.4 	"/>
	<polygon class="st8" points="169.8,336.6 159.9,342.3 150,336.6 150,325.1 159.9,319.4 169.8,325.1 	"/>
	<polygon class="st8" points="169.8,302.2 159.9,308 150,302.2 150,290.8 159.9,285 169.8,290.8 	"/>
</g>
<g id="NT">
	<polygon class="st9" points="278.9,250.7 268.9,256.4 259,250.7 259,239.2 268.9,233.5 278.9,239.2 	"/>
	<polygon class="st9" points="288.8,233.5 278.9,239.2 268.9,233.5 268.9,222 278.9,216.3 288.8,222 	"/>
	<polygon class="st9" points="278.9,216.3 268.9,222 259,216.3 259,204.8 268.9,199.1 278.9,204.8 	"/>
	<polygon class="st9" points="259,250.7 249.1,256.4 239.2,250.7 239.2,239.2 249.1,233.5 259,239.2 	"/>
	<polygon class="st9" points="269,233.5 259,239.2 249.1,233.5 249.1,222 259,216.3 269,222 	"/>
	<polygon class="st9" points="259,216.3 249.1,222 239.2,216.3 239.2,204.8 249.1,199.1 259,204.8 	"/>
	<polygon class="st9" points="269,199.1 259,204.8 249.1,199.1 249.1,187.6 259,181.9 269,187.6 	"/>
	<polygon class="st9" points="239.2,250.7 229.3,256.4 219.4,250.7 219.4,239.2 229.3,233.5 239.2,239.2 	"/>
	<polygon class="st9" points="249.1,233.5 239.2,239.2 229.3,233.5 229.3,222 239.2,216.3 249.1,222 	"/>
	<polygon class="st9" points="239.2,216.3 229.3,222 219.4,216.3 219.4,204.8 229.3,199.1 239.2,204.8 	"/>
	<polygon class="st9" points="249.1,199.1 239.2,204.8 229.3,199.1 229.3,187.6 239.2,181.9 249.1,187.6 	"/>
	<polygon class="st9" points="239.2,181.9 229.3,187.6 219.4,181.9 219.4,170.4 229.3,164.7 239.2,170.4 	"/>
	<polygon class="st9" points="239.2,147.5 229.3,153.2 219.4,147.5 219.4,136 229.3,130.3 239.2,136 	"/>
	<polygon class="st9" points="229.3,233.5 219.4,239.2 209.5,233.5 209.5,222 219.4,216.3 229.3,222 	"/>
	<polygon class="st9" points="219.4,216.3 209.5,222 199.5,216.3 199.5,204.8 209.5,199.1 219.4,204.8 	"/>
	<polygon class="st9" points="229.3,199.1 219.4,204.8 209.5,199.1 209.5,187.6 219.4,181.9 229.3,187.6 	"/>
	<polygon class="st9" points="219.4,181.9 209.5,187.6 199.5,181.9 199.5,170.4 209.5,164.7 219.4,170.4 	"/>
	<polygon class="st9" points="229.3,164.7 219.4,170.4 209.5,164.7 209.5,153.2 219.4,147.5 229.3,153.2 	"/>
	<polygon class="st9" points="219.4,147.5 209.5,153.2 199.5,147.5 199.5,136 209.5,130.3 219.4,136 	"/>
	<polygon class="st9" points="229.3,130.3 219.4,136 209.5,130.3 209.5,118.9 219.4,113.1 229.3,118.9 	"/>
	<polygon class="st9" points="219.4,113.1 209.5,118.9 199.5,113.1 199.5,101.7 209.5,95.9 219.4,101.7 	"/>
	<polygon class="st9" points="209.5,233.5 199.5,239.2 189.6,233.5 189.6,222 199.5,216.3 209.5,222 	"/>
	<polygon class="st9" points="199.6,216.3 189.6,222 179.7,216.3 179.7,204.8 189.6,199.1 199.6,204.8 	"/>
	<polygon class="st9" points="209.5,199.1 199.5,204.8 189.6,199.1 189.6,187.6 199.5,181.9 209.5,187.6 	"/>
	<polygon class="st9" points="199.6,181.9 189.6,187.6 179.7,181.9 179.7,170.4 189.6,164.7 199.6,170.4 	"/>
	<polygon class="st9" points="209.5,164.7 199.5,170.4 189.6,164.7 189.6,153.2 199.5,147.5 209.5,153.2 	"/>
	<polygon class="st9" points="199.6,147.5 189.6,153.2 179.7,147.5 179.7,136 189.6,130.3 199.6,136 	"/>
	<polygon class="st9" points="209.5,130.3 199.5,136 189.6,130.3 189.6,118.9 199.5,113.1 209.5,118.9 	"/>
	<polygon class="st9" points="199.6,113.1 189.6,118.9 179.7,113.1 179.7,101.7 189.6,95.9 199.6,101.7 	"/>
	<polygon class="st9" points="209.5,95.9 199.5,101.7 189.6,95.9 189.6,84.5 199.5,78.7 209.5,84.5 	"/>
	<polygon class="st9" points="189.6,233.5 179.7,239.2 169.8,233.5 169.8,222 179.7,216.3 189.6,222 	"/>
	<polygon class="st9" points="179.7,216.3 169.8,222 159.9,216.3 159.9,204.8 169.8,199.1 179.7,204.8 	"/>
	<polygon class="st9" points="189.6,199.1 179.7,204.8 169.8,199.1 169.8,187.6 179.7,181.9 189.6,187.6 	"/>
	<polygon class="st9" points="179.7,181.9 169.8,187.6 159.9,181.9 159.9,170.4 169.8,164.7 179.7,170.4 	"/>
	<polygon class="st9" points="189.6,164.7 179.7,170.4 169.8,164.7 169.8,153.2 179.7,147.5 189.6,153.2 	"/>
	<polygon class="st9" points="179.7,147.5 169.8,153.2 159.9,147.5 159.9,136 169.8,130.3 179.7,136 	"/>
	<polygon class="st9" points="189.6,130.3 179.7,136 169.8,130.3 169.8,118.9 179.7,113.1 189.6,118.9 	"/>
	<polygon class="st9" points="179.7,113.1 169.8,118.9 159.9,113.1 159.9,101.7 169.8,95.9 179.7,101.7 	"/>
	<polygon class="st9" points="189.6,95.9 179.7,101.7 169.8,95.9 169.8,84.5 179.7,78.7 189.6,84.5 	"/>
	<polygon class="st9" points="169.8,199.1 159.9,204.8 150,199.1 150,187.6 159.9,181.9 169.8,187.6 	"/>
	<polygon class="st9" points="169.8,164.7 159.9,170.4 150,164.7 150,153.2 159.9,147.5 169.8,153.2 	"/>
	<polygon class="st9" points="169.8,130.3 159.9,136 150,130.3 150,118.9 159.9,113.1 169.8,118.9 	"/>
</g>
<g id="BC">
	<polygon class="st10" points="179.7,250.7 169.8,256.4 159.9,250.7 159.9,239.2 169.8,233.5 179.7,239.2 	"/>
	<polygon class="st10" points="169.8,371 159.9,376.7 150,371 150,359.5 159.9,353.8 169.8,359.5 	"/>
	<polygon class="st10" points="159.9,353.8 150,359.5 140.1,353.8 140.1,342.3 150,336.6 159.9,342.3 	"/>
	<polygon class="st10" points="159.9,319.4 150,325.1 140.1,319.4 140.1,308 150,302.2 159.9,308 	"/>
	<polygon class="st10" points="159.9,285 150,290.8 140.1,285 140.1,273.6 150,267.8 159.9,273.6 	"/>
	<polygon class="st10" points="169.8,267.8 159.9,273.6 150,267.8 150,256.4 159.9,250.7 169.8,256.4 	"/>
	<polygon class="st10" points="159.9,250.7 150,256.4 140.1,250.7 140.1,239.2 150,233.5 159.9,239.2 	"/>
	<polygon class="st10" points="169.8,233.5 159.9,239.2 150,233.5 150,222 159.9,216.3 169.8,222 	"/>
	<polygon class="st10" points="150,371 140.1,376.7 130.1,371 130.1,359.5 140.1,353.8 150,359.5 	"/>
	<polygon class="st10" points="140.1,353.8 130.2,359.5 120.2,353.8 120.2,342.3 130.2,336.6 140.1,342.3 	"/>
	<polygon class="st10" points="150,336.6 140.1,342.3 130.1,336.6 130.1,325.1 140.1,319.4 150,325.1 	"/>
	<polygon class="st10" points="140.1,319.4 130.2,325.1 120.2,319.4 120.2,308 130.2,302.2 140.1,308 	"/>
	<polygon class="st10" points="150,302.2 140.1,308 130.1,302.2 130.1,290.8 140.1,285 150,290.8 	"/>
	<polygon class="st10" points="140.1,285 130.2,290.8 120.2,285 120.2,273.6 130.2,267.8 140.1,273.6 	"/>
	<polygon class="st10" points="150,267.8 140.1,273.6 130.1,267.8 130.1,256.4 140.1,250.7 150,256.4 	"/>
	<polygon class="st10" points="140.1,250.7 130.2,256.4 120.2,250.7 120.2,239.2 130.2,233.5 140.1,239.2 	"/>
	<polygon class="st10" points="150,233.5 140.1,239.2 130.1,233.5 130.1,222 140.1,216.3 150,222 	"/>
	<polygon class="st10" points="130.2,371 120.2,376.7 110.3,371 110.3,359.5 120.2,353.8 130.2,359.5 	"/>
	<polygon class="st10" points="120.3,353.8 110.3,359.5 100.4,353.8 100.4,342.3 110.3,336.6 120.3,342.3 	"/>
	<polygon class="st10" points="130.2,336.6 120.2,342.3 110.3,336.6 110.3,325.1 120.2,319.4 130.2,325.1 	"/>
	<polygon class="st10" points="120.3,319.4 110.3,325.1 100.4,319.4 100.4,308 110.3,302.2 120.3,308 	"/>
	<polygon class="st10" points="130.2,302.2 120.2,308 110.3,302.2 110.3,290.8 120.2,285 130.2,290.8 	"/>
	<polygon class="st10" points="120.3,285 110.3,290.8 100.4,285 100.4,273.6 110.3,267.8 120.3,273.6 	"/>
	<polygon class="st10" points="130.2,267.8 120.2,273.6 110.3,267.8 110.3,256.4 120.2,250.7 130.2,256.4 	"/>
	<polygon class="st10" points="120.3,250.7 110.3,256.4 100.4,250.7 100.4,239.2 110.3,233.5 120.3,239.2 	"/>
	<polygon class="st10" points="130.2,233.5 120.2,239.2 110.3,233.5 110.3,222 120.2,216.3 130.2,222 	"/>
	<polygon class="st10" points="120.3,216.3 110.3,222 100.4,216.3 100.4,204.8 110.3,199.1 120.3,204.8 	"/>
	<polygon class="st10" points="110.3,371 100.4,376.7 90.5,371 90.5,359.5 100.4,353.8 110.3,359.5 	"/>
	<polygon class="st10" points="100.4,353.8 90.5,359.5 80.6,353.8 80.6,342.3 90.5,336.6 100.4,342.3 	"/>
	<polygon class="st10" points="110.3,336.6 100.4,342.3 90.5,336.6 90.5,325.1 100.4,319.4 110.3,325.1 	"/>
	<polygon class="st10" points="100.4,319.4 90.5,325.1 80.6,319.4 80.6,308 90.5,302.2 100.4,308 	"/>
	<polygon class="st10" points="110.3,302.2 100.4,308 90.5,302.2 90.5,290.8 100.4,285 110.3,290.8 	"/>
	<polygon class="st10" points="100.4,285 90.5,290.8 80.6,285 80.6,273.6 90.5,267.8 100.4,273.6 	"/>
	<polygon class="st10" points="110.3,267.8 100.4,273.6 90.5,267.8 90.5,256.4 100.4,250.7 110.3,256.4 	"/>
	<polygon class="st10" points="100.4,250.7 90.5,256.4 80.6,250.7 80.6,239.2 90.5,233.5 100.4,239.2 	"/>
	<polygon class="st10" points="110.3,233.5 100.4,239.2 90.5,233.5 90.5,222 100.4,216.3 110.3,222 	"/>
	<polygon class="st10" points="100.4,216.3 90.5,222 80.6,216.3 80.6,204.8 90.5,199.1 100.4,204.8 	"/>
	<polygon class="st10" points="110.3,199.1 100.4,204.8 90.5,199.1 90.5,187.6 100.4,181.9 110.3,187.6 	"/>
	<polygon class="st10" points="90.5,336.6 80.6,342.3 70.7,336.6 70.7,325.1 80.6,319.4 90.5,325.1 	"/>
	<polygon class="st10" points="80.6,319.4 70.7,325.1 60.7,319.4 60.7,308 70.7,302.2 80.6,308 	"/>
	<polygon class="st10" points="90.5,302.2 80.6,308 70.7,302.2 70.7,290.8 80.6,285 90.5,290.8 	"/>
	<polygon class="st10" points="90.5,267.8 80.6,273.6 70.7,267.8 70.7,256.4 80.6,250.7 90.5,256.4 	"/>
	<polygon class="st10" points="90.5,233.5 80.6,239.2 70.7,233.5 70.7,222 80.6,216.3 90.5,222 	"/>
	<polygon class="st10" points="80.6,216.3 70.7,222 60.7,216.3 60.7,204.8 70.7,199.1 80.6,204.8 	"/>
	<polygon class="st10" points="90.5,199.1 80.6,204.8 70.7,199.1 70.7,187.6 80.6,181.9 90.5,187.6 	"/>
</g>
<g id="YT">
	<polygon class="st11" points="159.9,216.3 150,222 140.1,216.3 140.1,204.8 150,199.1 159.9,204.8 	"/>
	<polygon class="st11" points="159.9,181.9 150,187.6 140.1,181.9 140.1,170.4 150,164.7 159.9,170.4 	"/>
	<polygon class="st11" points="159.9,147.5 150,153.2 140.1,147.5 140.1,136 150,130.3 159.9,136 	"/>
	<polygon class="st11" points="159.9,113.1 150,118.9 140.1,113.1 140.1,101.7 150,95.9 159.9,101.7 	"/>
	<polygon class="st11" points="140.1,216.3 130.2,222 120.2,216.3 120.2,204.8 130.2,199.1 140.1,204.8 	"/>
	<polygon class="st11" points="150,199.1 140.1,204.8 130.1,199.1 130.1,187.6 140.1,181.9 150,187.6 	"/>
	<polygon class="st11" points="140.1,181.9 130.2,187.6 120.2,181.9 120.2,170.4 130.2,164.7 140.1,170.4 	"/>
	<polygon class="st11" points="150,164.7 140.1,170.4 130.1,164.7 130.1,153.2 140.1,147.5 150,153.2 	"/>
	<polygon class="st11" points="140.1,147.5 130.2,153.2 120.2,147.5 120.2,136 130.2,130.3 140.1,136 	"/>
	<polygon class="st11" points="150,130.3 140.1,136 130.1,130.3 130.1,118.9 140.1,113.1 150,118.9 	"/>
	<polygon class="st11" points="140.1,113.1 130.2,118.9 120.2,113.1 120.2,101.7 130.2,95.9 140.1,101.7 	"/>
	<polygon class="st11" points="150,95.9 140.1,101.7 130.1,95.9 130.1,84.5 140.1,78.7 150,84.5 	"/>
	<polygon class="st11" points="130.2,199.1 120.2,204.8 110.3,199.1 110.3,187.6 120.2,181.9 130.2,187.6 	"/>
	<polygon class="st11" points="120.3,181.9 110.3,187.6 100.4,181.9 100.4,170.4 110.3,164.7 120.3,170.4 	"/>
	<polygon class="st11" points="130.2,164.7 120.2,170.4 110.3,164.7 110.3,153.2 120.2,147.5 130.2,153.2 	"/>
	<polygon class="st11" points="120.3,147.5 110.3,153.2 100.4,147.5 100.4,136 110.3,130.3 120.3,136 	"/>
	<polygon class="st11" points="130.2,130.3 120.2,136 110.3,130.3 110.3,118.9 120.2,113.1 130.2,118.9 	"/>
	<polygon class="st11" points="120.3,113.1 110.3,118.9 100.4,113.1 100.4,101.7 110.3,95.9 120.3,101.7 	"/>
	<polygon class="st11" points="130.2,95.9 120.2,101.7 110.3,95.9 110.3,84.5 120.2,78.7 130.2,84.5 	"/>
	<polygon class="st11" points="100.4,181.9 90.5,187.6 80.6,181.9 80.6,170.4 90.5,164.7 100.4,170.4 	"/>
	<polygon class="st11" points="110.3,164.7 100.4,170.4 90.5,164.7 90.5,153.2 100.4,147.5 110.3,153.2 	"/>
	<polygon class="st11" points="100.4,147.5 90.5,153.2 80.6,147.5 80.6,136 90.5,130.3 100.4,136 	"/>
	<polygon class="st11" points="110.3,130.3 100.4,136 90.5,130.3 90.5,118.9 100.4,113.1 110.3,118.9 	"/>
	<polygon class="st11" points="90.5,164.7 80.6,170.4 70.7,164.7 70.7,153.2 80.6,147.5 90.5,153.2 	"/>
</g>
</svg>
