<svg id="Layer_1" data-name="Layer 1" xmlns="http://www.w3.org/2000/svg" viewBox="0 0 876.04 465"><defs><style>.cls-1{opacity:0.75;}.cls-2{fill:#e63c3c;}.cls-3{fill:#1e1e1e;}</style></defs><title>canada</title><g class="cls-1"><polygon class="cls-2" points="822.49 464.75 804.74 434 822.49 403.25 858 403.25 875.75 434 858 464.75 822.49 464.75"/><path class="cls-3" d="M882.06,433.5,899.67,464l-17.61,30.5H846.84L829.23,464l17.61-30.5h35.22m.29-.5h-35.8l-17.9,31,17.9,31h35.8l17.9-31-17.9-31Z" transform="translate(-24.2 -30)"/></g><g class="cls-1"><polygon class="cls-2" points="822.49 402.75 804.74 372 822.49 341.25 858 341.25 875.75 372 858 402.75 822.49 402.75"/><path class="cls-3" d="M882.06,371.5,899.67,402l-17.61,30.5H846.84L829.23,402l17.61-30.5h35.22m.29-.5h-35.8l-17.9,31,17.9,31h35.8l17.9-31-17.9-31Z" transform="translate(-24.2 -30)"/></g><g class="cls-1"><polygon class="cls-2" points="822.49 340.75 804.74 310 822.49 279.25 858 279.25 875.75 310 858 340.75 822.49 340.75"/><path class="cls-3" d="M882.06,309.5,899.67,340l-17.61,30.5H846.84L829.23,340l17.61-30.5h35.22m.29-.5h-35.8l-17.9,31,17.9,31h35.8l17.9-31-17.9-31Z" transform="translate(-24.2 -30)"/></g><g class="cls-1"><polygon class="cls-2" points="822.49 278.75 804.74 248 822.49 217.25 858 217.25 875.75 248 858 278.75 822.49 278.75"/><path class="cls-3" d="M882.06,247.5,899.67,278l-17.61,30.5H846.84L829.23,278l17.61-30.5h35.22m.29-.5h-35.8l-17.9,31,17.9,31h35.8l17.9-31-17.9-31Z" transform="translate(-24.2 -30)"/></g><g class="cls-1"><polygon class="cls-2" points="822.49 216.75 804.74 186 822.49 155.25 858 155.25 875.75 186 858 216.75 822.49 216.75"/><path class="cls-3" d="M882.06,185.5,899.67,216l-17.61,30.5H846.84L829.23,216l17.61-30.5h35.22m.29-.5h-35.8l-17.9,31,17.9,31h35.8l17.9-31-17.9-31Z" transform="translate(-24.2 -30)"/></g><g class="cls-1"><polygon class="cls-2" points="822.49 154.75 804.74 124 822.49 93.25 858 93.25 875.75 124 858 154.75 822.49 154.75"/><path class="cls-3" d="M882.06,123.5,899.67,154l-17.61,30.5H846.84L829.23,154l17.61-30.5h35.22m.29-.5h-35.8l-17.9,31,17.9,31h35.8l17.9-31-17.9-31Z" transform="translate(-24.2 -30)"/></g><g class="cls-1"><polygon class="cls-2" points="822.49 92.75 804.74 62 822.49 31.25 858 31.25 875.75 62 858 92.75 822.49 92.75"/><path class="cls-3" d="M882.06,61.5,899.67,92l-17.61,30.5H846.84L829.23,92l17.61-30.5h35.22m.29-.5h-35.8l-17.9,31,17.9,31h35.8l17.9-31-17.9-31Z" transform="translate(-24.2 -30)"/></g><g class="cls-1"><polygon class="cls-2" points="768.86 433.75 751.11 403 768.86 372.25 804.37 372.25 822.12 403 804.37 433.75 768.86 433.75"/><path class="cls-3" d="M828.43,402.5,846,433l-17.61,30.5H793.21L775.6,433l17.61-30.5h35.22m.29-.5h-35.8L775,433l17.9,31h35.8l17.9-31-17.9-31Z" transform="translate(-24.2 -30)"/></g><g class="cls-1"><polygon class="cls-2" points="768.86 371.75 751.11 341 768.86 310.25 804.37 310.25 822.12 341 804.37 371.75 768.86 371.75"/><path class="cls-3" d="M828.43,340.5,846,371l-17.61,30.5H793.21L775.6,371l17.61-30.5h35.22m.29-.5h-35.8L775,371l17.9,31h35.8l17.9-31-17.9-31Z" transform="translate(-24.2 -30)"/></g><g class="cls-1"><polygon class="cls-2" points="768.86 309.75 751.11 279 768.86 248.25 804.37 248.25 822.12 279 804.37 309.75 768.86 309.75"/><path class="cls-3" d="M828.43,278.5,846,309l-17.61,30.5H793.21L775.6,309l17.61-30.5h35.22m.29-.5h-35.8L775,309l17.9,31h35.8l17.9-31-17.9-31Z" transform="translate(-24.2 -30)"/></g><g class="cls-1"><polygon class="cls-2" points="768.86 247.75 751.11 217 768.86 186.25 804.37 186.25 822.12 217 804.37 247.75 768.86 247.75"/><path class="cls-3" d="M828.43,216.5,846,247l-17.61,30.5H793.21L775.6,247l17.61-30.5h35.22m.29-.5h-35.8L775,247l17.9,31h35.8l17.9-31-17.9-31Z" transform="translate(-24.2 -30)"/></g><g class="cls-1"><polygon class="cls-2" points="768.86 185.75 751.11 155 768.86 124.25 804.37 124.25 822.12 155 804.37 185.75 768.86 185.75"/><path class="cls-3" d="M828.43,154.5,846,185l-17.61,30.5H793.21L775.6,185l17.61-30.5h35.22m.29-.5h-35.8L775,185l17.9,31h35.8l17.9-31-17.9-31Z" transform="translate(-24.2 -30)"/></g><g class="cls-1"><polygon class="cls-2" points="768.86 123.75 751.11 93 768.86 62.25 804.37 62.25 822.12 93 804.37 123.75 768.86 123.75"/><path class="cls-3" d="M828.43,92.5,846,123l-17.61,30.5H793.21L775.6,123l17.61-30.5h35.22m.29-.5h-35.8L775,123l17.9,31h35.8l17.9-31-17.9-31Z" transform="translate(-24.2 -30)"/></g><g class="cls-1"><polygon class="cls-2" points="768.86 61.75 751.11 31 768.86 0.25 804.37 0.25 822.12 31 804.37 61.75 768.86 61.75"/><path class="cls-3" d="M828.43,30.5,846,61,828.43,91.5H793.21L775.6,61l17.61-30.5h35.22m.29-.5h-35.8L775,61l17.9,31h35.8l17.9-31-17.9-31Z" transform="translate(-24.2 -30)"/></g><g class="cls-1"><polygon class="cls-2" points="715.23 464.75 697.48 434 715.23 403.25 750.74 403.25 768.49 434 750.74 464.75 715.23 464.75"/><path class="cls-3" d="M774.8,433.5,792.41,464,774.8,494.5H739.58L722,464l17.61-30.5H774.8m.29-.5h-35.8l-17.9,31,17.9,31h35.8L793,464l-17.9-31Z" transform="translate(-24.2 -30)"/></g><g class="cls-1"><polygon class="cls-2" points="715.23 402.75 697.48 372 715.23 341.25 750.74 341.25 768.49 372 750.74 402.75 715.23 402.75"/><path class="cls-3" d="M774.8,371.5,792.41,402,774.8,432.5H739.58L722,402l17.61-30.5H774.8m.29-.5h-35.8l-17.9,31,17.9,31h35.8L793,402l-17.9-31Z" transform="translate(-24.2 -30)"/></g><g class="cls-1"><polygon class="cls-2" points="715.23 340.75 697.48 310 715.23 279.25 750.74 279.25 768.49 310 750.74 340.75 715.23 340.75"/><path class="cls-3" d="M774.8,309.5,792.41,340,774.8,370.5H739.58L722,340l17.61-30.5H774.8m.29-.5h-35.8l-17.9,31,17.9,31h35.8L793,340l-17.9-31Z" transform="translate(-24.2 -30)"/></g><g class="cls-1"><polygon class="cls-2" points="715.23 278.75 697.48 248 715.23 217.25 750.74 217.25 768.49 248 750.74 278.75 715.23 278.75"/><path class="cls-3" d="M774.8,247.5,792.41,278,774.8,308.5H739.58L722,278l17.61-30.5H774.8m.29-.5h-35.8l-17.9,31,17.9,31h35.8L793,278l-17.9-31Z" transform="translate(-24.2 -30)"/></g><g class="cls-1"><polygon class="cls-2" points="715.23 216.75 697.48 186 715.23 155.25 750.74 155.25 768.49 186 750.74 216.75 715.23 216.75"/><path class="cls-3" d="M774.8,185.5,792.41,216,774.8,246.5H739.58L722,216l17.61-30.5H774.8m.29-.5h-35.8l-17.9,31,17.9,31h35.8L793,216l-17.9-31Z" transform="translate(-24.2 -30)"/></g><g class="cls-1"><polygon class="cls-2" points="715.23 154.75 697.48 124 715.23 93.25 750.74 93.25 768.49 124 750.74 154.75 715.23 154.75"/><path class="cls-3" d="M774.8,123.5,792.41,154,774.8,184.5H739.58L722,154l17.61-30.5H774.8m.29-.5h-35.8l-17.9,31,17.9,31h35.8L793,154l-17.9-31Z" transform="translate(-24.2 -30)"/></g><g class="cls-1"><polygon class="cls-2" points="715.23 92.75 697.48 62 715.23 31.25 750.74 31.25 768.49 62 750.74 92.75 715.23 92.75"/><path class="cls-3" d="M774.8,61.5,792.41,92,774.8,122.5H739.58L722,92l17.61-30.5H774.8m.29-.5h-35.8l-17.9,31,17.9,31h35.8L793,92l-17.9-31Z" transform="translate(-24.2 -30)"/></g><g class="cls-1"><polygon class="cls-2" points="661.6 433.75 643.85 403 661.6 372.25 697.11 372.25 714.86 403 697.11 433.75 661.6 433.75"/><path class="cls-3" d="M721.17,402.5,738.78,433l-17.61,30.5H686L668.34,433,686,402.5h35.22m.29-.5h-35.8l-17.9,31,17.9,31h35.8l17.9-31-17.9-31Z" transform="translate(-24.2 -30)"/></g><g class="cls-1"><polygon class="cls-2" points="661.6 371.75 643.85 341 661.6 310.25 697.11 310.25 714.86 341 697.11 371.75 661.6 371.75"/><path class="cls-3" d="M721.17,340.5,738.78,371l-17.61,30.5H686L668.34,371,686,340.5h35.22m.29-.5h-35.8l-17.9,31,17.9,31h35.8l17.9-31-17.9-31Z" transform="translate(-24.2 -30)"/></g><g class="cls-1"><polygon class="cls-2" points="661.6 309.75 643.85 279 661.6 248.25 697.11 248.25 714.86 279 697.11 309.75 661.6 309.75"/><path class="cls-3" d="M721.17,278.5,738.78,309l-17.61,30.5H686L668.34,309,686,278.5h35.22m.29-.5h-35.8l-17.9,31,17.9,31h35.8l17.9-31-17.9-31Z" transform="translate(-24.2 -30)"/></g><g class="cls-1"><polygon class="cls-2" points="661.6 247.75 643.85 217 661.6 186.25 697.11 186.25 714.86 217 697.11 247.75 661.6 247.75"/><path class="cls-3" d="M721.17,216.5,738.78,247l-17.61,30.5H686L668.34,247,686,216.5h35.22m.29-.5h-35.8l-17.9,31,17.9,31h35.8l17.9-31-17.9-31Z" transform="translate(-24.2 -30)"/></g><g class="cls-1"><polygon class="cls-2" points="661.6 185.75 643.85 155 661.6 124.25 697.11 124.25 714.86 155 697.11 185.75 661.6 185.75"/><path class="cls-3" d="M721.17,154.5,738.78,185l-17.61,30.5H686L668.34,185,686,154.5h35.22m.29-.5h-35.8l-17.9,31,17.9,31h35.8l17.9-31-17.9-31Z" transform="translate(-24.2 -30)"/></g><g class="cls-1"><polygon class="cls-2" points="661.6 123.75 643.85 93 661.6 62.25 697.11 62.25 714.86 93 697.11 123.75 661.6 123.75"/><path class="cls-3" d="M721.17,92.5,738.78,123l-17.61,30.5H686L668.34,123,686,92.5h35.22m.29-.5h-35.8l-17.9,31,17.9,31h35.8l17.9-31-17.9-31Z" transform="translate(-24.2 -30)"/></g><g class="cls-1"><polygon class="cls-2" points="661.6 61.75 643.85 31 661.6 0.25 697.11 0.25 714.86 31 697.11 61.75 661.6 61.75"/><path class="cls-3" d="M721.17,30.5,738.78,61,721.17,91.5H686L668.34,61,686,30.5h35.22m.29-.5h-35.8l-17.9,31,17.9,31h35.8l17.9-31-17.9-31Z" transform="translate(-24.2 -30)"/></g><g class="cls-1"><polygon class="cls-2" points="607.97 464.75 590.22 434 607.97 403.25 643.48 403.25 661.23 434 643.48 464.75 607.97 464.75"/><path class="cls-3" d="M667.54,433.5,685.15,464l-17.61,30.5H632.32L614.71,464l17.61-30.5h35.22m.29-.5H632l-17.9,31L632,495h35.8l17.9-31-17.9-31Z" transform="translate(-24.2 -30)"/></g><g class="cls-1"><polygon class="cls-2" points="607.97 402.75 590.22 372 607.97 341.25 643.48 341.25 661.23 372 643.48 402.75 607.97 402.75"/><path class="cls-3" d="M667.54,371.5,685.15,402l-17.61,30.5H632.32L614.71,402l17.61-30.5h35.22m.29-.5H632l-17.9,31L632,433h35.8l17.9-31-17.9-31Z" transform="translate(-24.2 -30)"/></g><g class="cls-1"><polygon class="cls-2" points="607.97 340.75 590.22 310 607.97 279.25 643.48 279.25 661.23 310 643.48 340.75 607.97 340.75"/><path class="cls-3" d="M667.54,309.5,685.15,340l-17.61,30.5H632.32L614.71,340l17.61-30.5h35.22m.29-.5H632l-17.9,31L632,371h35.8l17.9-31-17.9-31Z" transform="translate(-24.2 -30)"/></g><g class="cls-1"><polygon class="cls-2" points="607.97 278.75 590.22 248 607.97 217.25 643.48 217.25 661.23 248 643.48 278.75 607.97 278.75"/><path class="cls-3" d="M667.54,247.5,685.15,278l-17.61,30.5H632.32L614.71,278l17.61-30.5h35.22m.29-.5H632l-17.9,31L632,309h35.8l17.9-31-17.9-31Z" transform="translate(-24.2 -30)"/></g><g class="cls-1"><polygon class="cls-2" points="607.97 216.75 590.22 186 607.97 155.25 643.48 155.25 661.23 186 643.48 216.75 607.97 216.75"/><path class="cls-3" d="M667.54,185.5,685.15,216l-17.61,30.5H632.32L614.71,216l17.61-30.5h35.22m.29-.5H632l-17.9,31L632,247h35.8l17.9-31-17.9-31Z" transform="translate(-24.2 -30)"/></g><g class="cls-1"><polygon class="cls-2" points="607.97 154.75 590.22 124 607.97 93.25 643.48 93.25 661.23 124 643.48 154.75 607.97 154.75"/><path class="cls-3" d="M667.54,123.5,685.15,154l-17.61,30.5H632.32L614.71,154l17.61-30.5h35.22m.29-.5H632l-17.9,31L632,185h35.8l17.9-31-17.9-31Z" transform="translate(-24.2 -30)"/></g><g class="cls-1"><polygon class="cls-2" points="607.97 92.75 590.22 62 607.97 31.25 643.48 31.25 661.23 62 643.48 92.75 607.97 92.75"/><path class="cls-3" d="M667.54,61.5,685.15,92l-17.61,30.5H632.32L614.71,92l17.61-30.5h35.22m.29-.5H632l-17.9,31L632,123h35.8l17.9-31-17.9-31Z" transform="translate(-24.2 -30)"/></g><g class="cls-1"><polygon class="cls-2" points="554.34 433.75 536.59 403 554.34 372.25 589.85 372.25 607.6 403 589.85 433.75 554.34 433.75"/><path class="cls-3" d="M613.91,402.5,631.52,433l-17.61,30.5H578.69L561.08,433l17.61-30.5h35.22m.29-.5H578.4l-17.9,31,17.9,31h35.8l17.9-31-17.9-31Z" transform="translate(-24.2 -30)"/></g><g class="cls-1"><polygon class="cls-2" points="554.34 371.75 536.59 341 554.34 310.25 589.85 310.25 607.6 341 589.85 371.75 554.34 371.75"/><path class="cls-3" d="M613.91,340.5,631.52,371l-17.61,30.5H578.69L561.08,371l17.61-30.5h35.22m.29-.5H578.4l-17.9,31,17.9,31h35.8l17.9-31-17.9-31Z" transform="translate(-24.2 -30)"/></g><g class="cls-1"><polygon class="cls-2" points="554.34 309.75 536.59 279 554.34 248.25 589.85 248.25 607.6 279 589.85 309.75 554.34 309.75"/><path class="cls-3" d="M613.91,278.5,631.52,309l-17.61,30.5H578.69L561.08,309l17.61-30.5h35.22m.29-.5H578.4l-17.9,31,17.9,31h35.8l17.9-31-17.9-31Z" transform="translate(-24.2 -30)"/></g><g class="cls-1"><polygon class="cls-2" points="554.34 247.75 536.59 217 554.34 186.25 589.85 186.25 607.6 217 589.85 247.75 554.34 247.75"/><path class="cls-3" d="M613.91,216.5,631.52,247l-17.61,30.5H578.69L561.08,247l17.61-30.5h35.22m.29-.5H578.4l-17.9,31,17.9,31h35.8l17.9-31-17.9-31Z" transform="translate(-24.2 -30)"/></g><g class="cls-1"><polygon class="cls-2" points="554.34 185.75 536.59 155 554.34 124.25 589.85 124.25 607.6 155 589.85 185.75 554.34 185.75"/><path class="cls-3" d="M613.91,154.5,631.52,185l-17.61,30.5H578.69L561.08,185l17.61-30.5h35.22m.29-.5H578.4l-17.9,31,17.9,31h35.8l17.9-31-17.9-31Z" transform="translate(-24.2 -30)"/></g><g class="cls-1"><polygon class="cls-2" points="554.34 123.75 536.59 93 554.34 62.25 589.85 62.25 607.6 93 589.85 123.75 554.34 123.75"/><path class="cls-3" d="M613.91,92.5,631.52,123l-17.61,30.5H578.69L561.08,123l17.61-30.5h35.22m.29-.5H578.4l-17.9,31,17.9,31h35.8l17.9-31L614.2,92Z" transform="translate(-24.2 -30)"/></g><g class="cls-1"><polygon class="cls-2" points="554.34 61.75 536.59 31 554.34 0.25 589.85 0.25 607.6 31 589.85 61.75 554.34 61.75"/><path class="cls-3" d="M613.91,30.5,631.52,61,613.91,91.5H578.69L561.08,61l17.61-30.5h35.22m.29-.5H578.4L560.5,61l17.9,31h35.8l17.9-31L614.2,30Z" transform="translate(-24.2 -30)"/></g><g class="cls-1"><polygon class="cls-2" points="500.71 464.75 482.96 434 500.71 403.25 536.22 403.25 553.97 434 536.22 464.75 500.71 464.75"/><path class="cls-3" d="M560.28,433.5,577.89,464l-17.61,30.5H525.06L507.45,464l17.61-30.5h35.22m.29-.5h-35.8l-17.9,31,17.9,31h35.8l17.9-31-17.9-31Z" transform="translate(-24.2 -30)"/></g><g class="cls-1"><polygon class="cls-2" points="500.71 402.75 482.96 372 500.71 341.25 536.22 341.25 553.97 372 536.22 402.75 500.71 402.75"/><path class="cls-3" d="M560.28,371.5,577.89,402l-17.61,30.5H525.06L507.45,402l17.61-30.5h35.22m.29-.5h-35.8l-17.9,31,17.9,31h35.8l17.9-31-17.9-31Z" transform="translate(-24.2 -30)"/></g><g class="cls-1"><polygon class="cls-2" points="500.71 340.75 482.96 310 500.71 279.25 536.22 279.25 553.97 310 536.22 340.75 500.71 340.75"/><path class="cls-3" d="M560.28,309.5,577.89,340l-17.61,30.5H525.06L507.45,340l17.61-30.5h35.22m.29-.5h-35.8l-17.9,31,17.9,31h35.8l17.9-31-17.9-31Z" transform="translate(-24.2 -30)"/></g><g class="cls-1"><polygon class="cls-2" points="500.71 278.75 482.96 248 500.71 217.25 536.22 217.25 553.97 248 536.22 278.75 500.71 278.75"/><path class="cls-3" d="M560.28,247.5,577.89,278l-17.61,30.5H525.06L507.45,278l17.61-30.5h35.22m.29-.5h-35.8l-17.9,31,17.9,31h35.8l17.9-31-17.9-31Z" transform="translate(-24.2 -30)"/></g><g class="cls-1"><polygon class="cls-2" points="500.71 216.75 482.96 186 500.71 155.25 536.22 155.25 553.97 186 536.22 216.75 500.71 216.75"/><path class="cls-3" d="M560.28,185.5,577.89,216l-17.61,30.5H525.06L507.45,216l17.61-30.5h35.22m.29-.5h-35.8l-17.9,31,17.9,31h35.8l17.9-31-17.9-31Z" transform="translate(-24.2 -30)"/></g><g class="cls-1"><polygon class="cls-2" points="500.71 154.75 482.96 124 500.71 93.25 536.22 93.25 553.97 124 536.22 154.75 500.71 154.75"/><path class="cls-3" d="M560.28,123.5,577.89,154l-17.61,30.5H525.06L507.45,154l17.61-30.5h35.22m.29-.5h-35.8l-17.9,31,17.9,31h35.8l17.9-31-17.9-31Z" transform="translate(-24.2 -30)"/></g><g class="cls-1"><polygon class="cls-2" points="500.71 92.75 482.96 62 500.71 31.25 536.22 31.25 553.97 62 536.22 92.75 500.71 92.75"/><path class="cls-3" d="M560.28,61.5,577.89,92l-17.61,30.5H525.06L507.45,92l17.61-30.5h35.22m.29-.5h-35.8l-17.9,31,17.9,31h35.8l17.9-31-17.9-31Z" transform="translate(-24.2 -30)"/></g><g class="cls-1"><polygon class="cls-2" points="447.08 433.75 429.33 403 447.08 372.25 482.59 372.25 500.34 403 482.59 433.75 447.08 433.75"/><path class="cls-3" d="M506.65,402.5,524.26,433l-17.61,30.5H471.43L453.82,433l17.61-30.5h35.22m.29-.5h-35.8l-17.9,31,17.9,31h35.8l17.9-31-17.9-31Z" transform="translate(-24.2 -30)"/></g><g class="cls-1"><polygon class="cls-2" points="447.08 371.75 429.33 341 447.08 310.25 482.59 310.25 500.34 341 482.59 371.75 447.08 371.75"/><path class="cls-3" d="M506.65,340.5,524.26,371l-17.61,30.5H471.43L453.82,371l17.61-30.5h35.22m.29-.5h-35.8l-17.9,31,17.9,31h35.8l17.9-31-17.9-31Z" transform="translate(-24.2 -30)"/></g><g class="cls-1"><polygon class="cls-2" points="447.08 309.75 429.33 279 447.08 248.25 482.59 248.25 500.34 279 482.59 309.75 447.08 309.75"/><path class="cls-3" d="M506.65,278.5,524.26,309l-17.61,30.5H471.43L453.82,309l17.61-30.5h35.22m.29-.5h-35.8l-17.9,31,17.9,31h35.8l17.9-31-17.9-31Z" transform="translate(-24.2 -30)"/></g><g class="cls-1"><polygon class="cls-2" points="447.08 247.75 429.33 217 447.08 186.25 482.59 186.25 500.34 217 482.59 247.75 447.08 247.75"/><path class="cls-3" d="M506.65,216.5,524.26,247l-17.61,30.5H471.43L453.82,247l17.61-30.5h35.22m.29-.5h-35.8l-17.9,31,17.9,31h35.8l17.9-31-17.9-31Z" transform="translate(-24.2 -30)"/></g><g class="cls-1"><polygon class="cls-2" points="447.08 185.75 429.33 155 447.08 124.25 482.59 124.25 500.34 155 482.59 185.75 447.08 185.75"/><path class="cls-3" d="M506.65,154.5,524.26,185l-17.61,30.5H471.43L453.82,185l17.61-30.5h35.22m.29-.5h-35.8l-17.9,31,17.9,31h35.8l17.9-31-17.9-31Z" transform="translate(-24.2 -30)"/></g><g class="cls-1"><polygon class="cls-2" points="447.08 123.75 429.33 93 447.08 62.25 482.59 62.25 500.34 93 482.59 123.75 447.08 123.75"/><path class="cls-3" d="M506.65,92.5,524.26,123l-17.61,30.5H471.43L453.82,123l17.61-30.5h35.22m.29-.5h-35.8l-17.9,31,17.9,31h35.8l17.9-31-17.9-31Z" transform="translate(-24.2 -30)"/></g><g class="cls-1"><polygon class="cls-2" points="447.08 61.75 429.33 31 447.08 0.25 482.59 0.25 500.34 31 482.59 61.75 447.08 61.75"/><path class="cls-3" d="M506.65,30.5,524.26,61,506.65,91.5H471.43L453.82,61l17.61-30.5h35.22m.29-.5h-35.8l-17.9,31,17.9,31h35.8l17.9-31-17.9-31Z" transform="translate(-24.2 -30)"/></g><g class="cls-1"><polygon class="cls-2" points="393.45 464.75 375.7 434 393.45 403.25 428.96 403.25 446.71 434 428.96 464.75 393.45 464.75"/><path class="cls-3" d="M453,433.5,470.63,464,453,494.5H417.8L400.19,464l17.61-30.5H453m.29-.5h-35.8l-17.9,31,17.9,31h35.8l17.9-31-17.9-31Z" transform="translate(-24.2 -30)"/></g><g class="cls-1"><polygon class="cls-2" points="393.45 402.75 375.7 372 393.45 341.25 428.96 341.25 446.71 372 428.96 402.75 393.45 402.75"/><path class="cls-3" d="M453,371.5,470.63,402,453,432.5H417.8L400.19,402l17.61-30.5H453m.29-.5h-35.8l-17.9,31,17.9,31h35.8l17.9-31-17.9-31Z" transform="translate(-24.2 -30)"/></g><g class="cls-1"><polygon class="cls-2" points="393.45 340.75 375.7 310 393.45 279.25 428.96 279.25 446.71 310 428.96 340.75 393.45 340.75"/><path class="cls-3" d="M453,309.5,470.63,340,453,370.5H417.8L400.19,340l17.61-30.5H453m.29-.5h-35.8l-17.9,31,17.9,31h35.8l17.9-31-17.9-31Z" transform="translate(-24.2 -30)"/></g><g class="cls-1"><polygon class="cls-2" points="393.45 278.75 375.7 248 393.45 217.25 428.96 217.25 446.71 248 428.96 278.75 393.45 278.75"/><path class="cls-3" d="M453,247.5,470.63,278,453,308.5H417.8L400.19,278l17.61-30.5H453m.29-.5h-35.8l-17.9,31,17.9,31h35.8l17.9-31-17.9-31Z" transform="translate(-24.2 -30)"/></g><g class="cls-1"><polygon class="cls-2" points="393.45 216.75 375.7 186 393.45 155.25 428.96 155.25 446.71 186 428.96 216.75 393.45 216.75"/><path class="cls-3" d="M453,185.5,470.63,216,453,246.5H417.8L400.19,216l17.61-30.5H453m.29-.5h-35.8l-17.9,31,17.9,31h35.8l17.9-31-17.9-31Z" transform="translate(-24.2 -30)"/></g><g class="cls-1"><polygon class="cls-2" points="393.45 154.75 375.7 124 393.45 93.25 428.96 93.25 446.71 124 428.96 154.75 393.45 154.75"/><path class="cls-3" d="M453,123.5,470.63,154,453,184.5H417.8L400.19,154l17.61-30.5H453m.29-.5h-35.8l-17.9,31,17.9,31h35.8l17.9-31-17.9-31Z" transform="translate(-24.2 -30)"/></g><g class="cls-1"><polygon class="cls-2" points="393.45 92.75 375.7 62 393.45 31.25 428.96 31.25 446.71 62 428.96 92.75 393.45 92.75"/><path class="cls-3" d="M453,61.5,470.63,92,453,122.5H417.8L400.19,92,417.8,61.5H453m.29-.5h-35.8l-17.9,31,17.9,31h35.8l17.9-31-17.9-31Z" transform="translate(-24.2 -30)"/></g><g class="cls-1"><polygon class="cls-2" points="339.82 433.75 322.07 403 339.82 372.25 375.33 372.25 393.08 403 375.33 433.75 339.82 433.75"/><path class="cls-3" d="M399.39,402.5,417,433l-17.61,30.5H364.17L346.56,433l17.61-30.5h35.22m.29-.5h-35.8L346,433l17.9,31h35.8l17.9-31-17.9-31Z" transform="translate(-24.2 -30)"/></g><g class="cls-1"><polygon class="cls-2" points="339.82 371.75 322.07 341 339.82 310.25 375.33 310.25 393.08 341 375.33 371.75 339.82 371.75"/><path class="cls-3" d="M399.39,340.5,417,371l-17.61,30.5H364.17L346.56,371l17.61-30.5h35.22m.29-.5h-35.8L346,371l17.9,31h35.8l17.9-31-17.9-31Z" transform="translate(-24.2 -30)"/></g><g class="cls-1"><polygon class="cls-2" points="339.82 309.75 322.07 279 339.82 248.25 375.33 248.25 393.08 279 375.33 309.75 339.82 309.75"/><path class="cls-3" d="M399.39,278.5,417,309l-17.61,30.5H364.17L346.56,309l17.61-30.5h35.22m.29-.5h-35.8L346,309l17.9,31h35.8l17.9-31-17.9-31Z" transform="translate(-24.2 -30)"/></g><g class="cls-1"><polygon class="cls-2" points="339.82 247.75 322.07 217 339.82 186.25 375.33 186.25 393.08 217 375.33 247.75 339.82 247.75"/><path class="cls-3" d="M399.39,216.5,417,247l-17.61,30.5H364.17L346.56,247l17.61-30.5h35.22m.29-.5h-35.8L346,247l17.9,31h35.8l17.9-31-17.9-31Z" transform="translate(-24.2 -30)"/></g><g class="cls-1"><polygon class="cls-2" points="339.82 185.75 322.07 155 339.82 124.25 375.33 124.25 393.08 155 375.33 185.75 339.82 185.75"/><path class="cls-3" d="M399.39,154.5,417,185l-17.61,30.5H364.17L346.56,185l17.61-30.5h35.22m.29-.5h-35.8L346,185l17.9,31h35.8l17.9-31-17.9-31Z" transform="translate(-24.2 -30)"/></g><g class="cls-1"><polygon class="cls-2" points="339.82 123.75 322.07 93 339.82 62.25 375.33 62.25 393.08 93 375.33 123.75 339.82 123.75"/><path class="cls-3" d="M399.39,92.5,417,123l-17.61,30.5H364.17L346.56,123l17.61-30.5h35.22m.29-.5h-35.8L346,123l17.9,31h35.8l17.9-31-17.9-31Z" transform="translate(-24.2 -30)"/></g><g class="cls-1"><polygon class="cls-2" points="339.82 61.75 322.07 31 339.82 0.25 375.33 0.25 393.08 31 375.33 61.75 339.82 61.75"/><path class="cls-3" d="M399.39,30.5,417,61,399.39,91.5H364.17L346.56,61l17.61-30.5h35.22m.29-.5h-35.8L346,61l17.9,31h35.8l17.9-31-17.9-31Z" transform="translate(-24.2 -30)"/></g><g class="cls-1"><polygon class="cls-2" points="286.19 464.75 268.44 434 286.19 403.25 321.7 403.25 339.45 434 321.7 464.75 286.19 464.75"/><path class="cls-3" d="M345.76,433.5,363.37,464l-17.61,30.5H310.54L292.93,464l17.61-30.5h35.22m.29-.5h-35.8l-17.9,31,17.9,31h35.8L364,464l-17.9-31Z" transform="translate(-24.2 -30)"/></g><g class="cls-1"><polygon class="cls-2" points="286.19 402.75 268.44 372 286.19 341.25 321.7 341.25 339.45 372 321.7 402.75 286.19 402.75"/><path class="cls-3" d="M345.76,371.5,363.37,402l-17.61,30.5H310.54L292.93,402l17.61-30.5h35.22m.29-.5h-35.8l-17.9,31,17.9,31h35.8L364,402l-17.9-31Z" transform="translate(-24.2 -30)"/></g><g class="cls-1"><polygon class="cls-2" points="286.19 340.75 268.44 310 286.19 279.25 321.7 279.25 339.45 310 321.7 340.75 286.19 340.75"/><path class="cls-3" d="M345.76,309.5,363.37,340l-17.61,30.5H310.54L292.93,340l17.61-30.5h35.22m.29-.5h-35.8l-17.9,31,17.9,31h35.8L364,340l-17.9-31Z" transform="translate(-24.2 -30)"/></g><g class="cls-1"><polygon class="cls-2" points="286.19 278.75 268.44 248 286.19 217.25 321.7 217.25 339.45 248 321.7 278.75 286.19 278.75"/><path class="cls-3" d="M345.76,247.5,363.37,278l-17.61,30.5H310.54L292.93,278l17.61-30.5h35.22m.29-.5h-35.8l-17.9,31,17.9,31h35.8L364,278l-17.9-31Z" transform="translate(-24.2 -30)"/></g><g class="cls-1"><polygon class="cls-2" points="286.19 216.75 268.44 186 286.19 155.25 321.7 155.25 339.45 186 321.7 216.75 286.19 216.75"/><path class="cls-3" d="M345.76,185.5,363.37,216l-17.61,30.5H310.54L292.93,216l17.61-30.5h35.22m.29-.5h-35.8l-17.9,31,17.9,31h35.8L364,216l-17.9-31Z" transform="translate(-24.2 -30)"/></g><g class="cls-1"><polygon class="cls-2" points="286.19 154.75 268.44 124 286.19 93.25 321.7 93.25 339.45 124 321.7 154.75 286.19 154.75"/><path class="cls-3" d="M345.76,123.5,363.37,154l-17.61,30.5H310.54L292.93,154l17.61-30.5h35.22m.29-.5h-35.8l-17.9,31,17.9,31h35.8L364,154l-17.9-31Z" transform="translate(-24.2 -30)"/></g><g class="cls-1"><polygon class="cls-2" points="286.19 92.75 268.44 62 286.19 31.25 321.7 31.25 339.45 62 321.7 92.75 286.19 92.75"/><path class="cls-3" d="M345.76,61.5,363.37,92l-17.61,30.5H310.54L292.93,92l17.61-30.5h35.22m.29-.5h-35.8l-17.9,31,17.9,31h35.8L364,92l-17.9-31Z" transform="translate(-24.2 -30)"/></g><g class="cls-1"><polygon class="cls-2" points="232.56 433.75 214.81 403 232.56 372.25 268.07 372.25 285.82 403 268.07 433.75 232.56 433.75"/><path class="cls-3" d="M292.13,402.5,309.74,433l-17.61,30.5H256.91L239.3,433l17.61-30.5h35.22m.29-.5h-35.8l-17.9,31,17.9,31h35.8l17.9-31-17.9-31Z" transform="translate(-24.2 -30)"/></g><g class="cls-1"><polygon class="cls-2" points="232.56 371.75 214.81 341 232.56 310.25 268.07 310.25 285.82 341 268.07 371.75 232.56 371.75"/><path class="cls-3" d="M292.13,340.5,309.74,371l-17.61,30.5H256.91L239.3,371l17.61-30.5h35.22m.29-.5h-35.8l-17.9,31,17.9,31h35.8l17.9-31-17.9-31Z" transform="translate(-24.2 -30)"/></g><g class="cls-1"><polygon class="cls-2" points="232.56 309.75 214.81 279 232.56 248.25 268.07 248.25 285.82 279 268.07 309.75 232.56 309.75"/><path class="cls-3" d="M292.13,278.5,309.74,309l-17.61,30.5H256.91L239.3,309l17.61-30.5h35.22m.29-.5h-35.8l-17.9,31,17.9,31h35.8l17.9-31-17.9-31Z" transform="translate(-24.2 -30)"/></g><g class="cls-1"><polygon class="cls-2" points="232.56 247.75 214.81 217 232.56 186.25 268.07 186.25 285.82 217 268.07 247.75 232.56 247.75"/><path class="cls-3" d="M292.13,216.5,309.74,247l-17.61,30.5H256.91L239.3,247l17.61-30.5h35.22m.29-.5h-35.8l-17.9,31,17.9,31h35.8l17.9-31-17.9-31Z" transform="translate(-24.2 -30)"/></g><g class="cls-1"><polygon class="cls-2" points="232.56 185.75 214.81 155 232.56 124.25 268.07 124.25 285.82 155 268.07 185.75 232.56 185.75"/><path class="cls-3" d="M292.13,154.5,309.74,185l-17.61,30.5H256.91L239.3,185l17.61-30.5h35.22m.29-.5h-35.8l-17.9,31,17.9,31h35.8l17.9-31-17.9-31Z" transform="translate(-24.2 -30)"/></g><g class="cls-1"><polygon class="cls-2" points="232.56 123.75 214.81 93 232.56 62.25 268.07 62.25 285.82 93 268.07 123.75 232.56 123.75"/><path class="cls-3" d="M292.13,92.5,309.74,123l-17.61,30.5H256.91L239.3,123l17.61-30.5h35.22m.29-.5h-35.8l-17.9,31,17.9,31h35.8l17.9-31-17.9-31Z" transform="translate(-24.2 -30)"/></g><g class="cls-1"><polygon class="cls-2" points="232.56 61.75 214.81 31 232.56 0.25 268.07 0.25 285.82 31 268.07 61.75 232.56 61.75"/><path class="cls-3" d="M292.13,30.5,309.74,61,292.13,91.5H256.91L239.3,61l17.61-30.5h35.22m.29-.5h-35.8l-17.9,31,17.9,31h35.8l17.9-31-17.9-31Z" transform="translate(-24.2 -30)"/></g><g class="cls-1"><polygon class="cls-2" points="178.93 464.75 161.18 434 178.93 403.25 214.44 403.25 232.19 434 214.44 464.75 178.93 464.75"/><path class="cls-3" d="M238.5,433.5,256.11,464,238.5,494.5H203.28L185.67,464l17.61-30.5H238.5m.29-.5H203l-17.9,31L203,495h35.8l17.9-31-17.9-31Z" transform="translate(-24.2 -30)"/></g><g class="cls-1"><polygon class="cls-2" points="178.93 402.75 161.18 372 178.93 341.25 214.44 341.25 232.19 372 214.44 402.75 178.93 402.75"/><path class="cls-3" d="M238.5,371.5,256.11,402,238.5,432.5H203.28L185.67,402l17.61-30.5H238.5m.29-.5H203l-17.9,31L203,433h35.8l17.9-31-17.9-31Z" transform="translate(-24.2 -30)"/></g><g class="cls-1"><polygon class="cls-2" points="178.93 340.75 161.18 310 178.93 279.25 214.44 279.25 232.19 310 214.44 340.75 178.93 340.75"/><path class="cls-3" d="M238.5,309.5,256.11,340,238.5,370.5H203.28L185.67,340l17.61-30.5H238.5m.29-.5H203l-17.9,31L203,371h35.8l17.9-31-17.9-31Z" transform="translate(-24.2 -30)"/></g><g class="cls-1"><polygon class="cls-2" points="178.93 278.75 161.18 248 178.93 217.25 214.44 217.25 232.19 248 214.44 278.75 178.93 278.75"/><path class="cls-3" d="M238.5,247.5,256.11,278,238.5,308.5H203.28L185.67,278l17.61-30.5H238.5m.29-.5H203l-17.9,31L203,309h35.8l17.9-31-17.9-31Z" transform="translate(-24.2 -30)"/></g><g class="cls-1"><polygon class="cls-2" points="178.93 216.75 161.18 186 178.93 155.25 214.44 155.25 232.19 186 214.44 216.75 178.93 216.75"/><path class="cls-3" d="M238.5,185.5,256.11,216,238.5,246.5H203.28L185.67,216l17.61-30.5H238.5m.29-.5H203l-17.9,31L203,247h35.8l17.9-31-17.9-31Z" transform="translate(-24.2 -30)"/></g><g class="cls-1"><polygon class="cls-2" points="178.93 154.75 161.18 124 178.93 93.25 214.44 93.25 232.19 124 214.44 154.75 178.93 154.75"/><path class="cls-3" d="M238.5,123.5,256.11,154,238.5,184.5H203.28L185.67,154l17.61-30.5H238.5m.29-.5H203l-17.9,31L203,185h35.8l17.9-31-17.9-31Z" transform="translate(-24.2 -30)"/></g><g class="cls-1"><polygon class="cls-2" points="178.93 92.75 161.18 62 178.93 31.25 214.44 31.25 232.19 62 214.44 92.75 178.93 92.75"/><path class="cls-3" d="M238.5,61.5,256.11,92,238.5,122.5H203.28L185.67,92l17.61-30.5H238.5m.29-.5H203l-17.9,31L203,123h35.8l17.9-31-17.9-31Z" transform="translate(-24.2 -30)"/></g><g class="cls-1"><polygon class="cls-2" points="125.3 433.75 107.55 403 125.3 372.25 160.81 372.25 178.56 403 160.81 433.75 125.3 433.75"/><path class="cls-3" d="M184.87,402.5,202.48,433l-17.61,30.5H149.65L132,433l17.61-30.5h35.22m.29-.5h-35.8l-17.9,31,17.9,31h35.8l17.9-31-17.9-31Z" transform="translate(-24.2 -30)"/></g><g class="cls-1"><polygon class="cls-2" points="125.3 371.75 107.55 341 125.3 310.25 160.81 310.25 178.56 341 160.81 371.75 125.3 371.75"/><path class="cls-3" d="M184.87,340.5,202.48,371l-17.61,30.5H149.65L132,371l17.61-30.5h35.22m.29-.5h-35.8l-17.9,31,17.9,31h35.8l17.9-31-17.9-31Z" transform="translate(-24.2 -30)"/></g><g class="cls-1"><polygon class="cls-2" points="125.3 309.75 107.55 279 125.3 248.25 160.81 248.25 178.56 279 160.81 309.75 125.3 309.75"/><path class="cls-3" d="M184.87,278.5,202.48,309l-17.61,30.5H149.65L132,309l17.61-30.5h35.22m.29-.5h-35.8l-17.9,31,17.9,31h35.8l17.9-31-17.9-31Z" transform="translate(-24.2 -30)"/></g><g class="cls-1"><polygon class="cls-2" points="125.3 247.75 107.55 217 125.3 186.25 160.81 186.25 178.56 217 160.81 247.75 125.3 247.75"/><path class="cls-3" d="M184.87,216.5,202.48,247l-17.61,30.5H149.65L132,247l17.61-30.5h35.22m.29-.5h-35.8l-17.9,31,17.9,31h35.8l17.9-31-17.9-31Z" transform="translate(-24.2 -30)"/></g><g class="cls-1"><polygon class="cls-2" points="125.3 185.75 107.55 155 125.3 124.25 160.81 124.25 178.56 155 160.81 185.75 125.3 185.75"/><path class="cls-3" d="M184.87,154.5,202.48,185l-17.61,30.5H149.65L132,185l17.61-30.5h35.22m.29-.5h-35.8l-17.9,31,17.9,31h35.8l17.9-31-17.9-31Z" transform="translate(-24.2 -30)"/></g><g class="cls-1"><polygon class="cls-2" points="125.3 123.75 107.55 93 125.3 62.25 160.81 62.25 178.56 93 160.81 123.75 125.3 123.75"/><path class="cls-3" d="M184.87,92.5,202.48,123l-17.61,30.5H149.65L132,123l17.61-30.5h35.22m.29-.5h-35.8l-17.9,31,17.9,31h35.8l17.9-31-17.9-31Z" transform="translate(-24.2 -30)"/></g><g class="cls-1"><polygon class="cls-2" points="125.3 61.75 107.55 31 125.3 0.25 160.81 0.25 178.56 31 160.81 61.75 125.3 61.75"/><path class="cls-3" d="M184.87,30.5,202.48,61,184.87,91.5H149.65L132,61l17.61-30.5h35.22m.29-.5h-35.8l-17.9,31,17.9,31h35.8l17.9-31-17.9-31Z" transform="translate(-24.2 -30)"/></g><g class="cls-1"><polygon class="cls-2" points="71.67 464.75 53.92 434 71.67 403.25 107.18 403.25 124.93 434 107.18 464.75 71.67 464.75"/><path class="cls-3" d="M131.24,433.5,148.85,464l-17.61,30.5H96L78.41,464,96,433.5h35.22m.29-.5H95.73l-17.9,31,17.9,31h35.8l17.9-31-17.9-31Z" transform="translate(-24.2 -30)"/></g><g class="cls-1"><polygon class="cls-2" points="71.67 402.75 53.92 372 71.67 341.25 107.18 341.25 124.93 372 107.18 402.75 71.67 402.75"/><path class="cls-3" d="M131.24,371.5,148.85,402l-17.61,30.5H96L78.41,402,96,371.5h35.22m.29-.5H95.73l-17.9,31,17.9,31h35.8l17.9-31-17.9-31Z" transform="translate(-24.2 -30)"/></g><g class="cls-1"><polygon class="cls-2" points="71.67 340.75 53.92 310 71.67 279.25 107.18 279.25 124.93 310 107.18 340.75 71.67 340.75"/><path class="cls-3" d="M131.24,309.5,148.85,340l-17.61,30.5H96L78.41,340,96,309.5h35.22m.29-.5H95.73l-17.9,31,17.9,31h35.8l17.9-31-17.9-31Z" transform="translate(-24.2 -30)"/></g><g class="cls-1"><polygon class="cls-2" points="71.67 278.75 53.92 248 71.67 217.25 107.18 217.25 124.93 248 107.18 278.75 71.67 278.75"/><path class="cls-3" d="M131.24,247.5,148.85,278l-17.61,30.5H96L78.41,278,96,247.5h35.22m.29-.5H95.73l-17.9,31,17.9,31h35.8l17.9-31-17.9-31Z" transform="translate(-24.2 -30)"/></g><g class="cls-1"><polygon class="cls-2" points="71.67 216.75 53.92 186 71.67 155.25 107.18 155.25 124.93 186 107.18 216.75 71.67 216.75"/><path class="cls-3" d="M131.24,185.5,148.85,216l-17.61,30.5H96L78.41,216,96,185.5h35.22m.29-.5H95.73l-17.9,31,17.9,31h35.8l17.9-31-17.9-31Z" transform="translate(-24.2 -30)"/></g><g class="cls-1"><polygon class="cls-2" points="71.67 154.75 53.92 124 71.67 93.25 107.18 93.25 124.93 124 107.18 154.75 71.67 154.75"/><path class="cls-3" d="M131.24,123.5,148.85,154l-17.61,30.5H96L78.41,154,96,123.5h35.22m.29-.5H95.73l-17.9,31,17.9,31h35.8l17.9-31-17.9-31Z" transform="translate(-24.2 -30)"/></g><g class="cls-1"><polygon class="cls-2" points="71.67 92.75 53.92 62 71.67 31.25 107.18 31.25 124.93 62 107.18 92.75 71.67 92.75"/><path class="cls-3" d="M131.24,61.5,148.85,92l-17.61,30.5H96L78.41,92,96,61.5h35.22m.29-.5H95.73L77.83,92l17.9,31h35.8l17.9-31-17.9-31Z" transform="translate(-24.2 -30)"/></g><g class="cls-1"><polygon class="cls-2" points="18.04 433.75 0.29 403 18.04 372.25 53.55 372.25 71.3 403 53.55 433.75 18.04 433.75"/><path class="cls-3" d="M77.61,402.5,95.22,433,77.61,463.5H42.39L24.78,433l17.61-30.5H77.61m.29-.5H42.1L24.2,433l17.9,31H77.9l17.9-31L77.9,402Z" transform="translate(-24.2 -30)"/></g><g class="cls-1"><polygon class="cls-2" points="18.04 371.75 0.29 341 18.04 310.25 53.55 310.25 71.3 341 53.55 371.75 18.04 371.75"/><path class="cls-3" d="M77.61,340.5,95.22,371,77.61,401.5H42.39L24.78,371l17.61-30.5H77.61m.29-.5H42.1L24.2,371l17.9,31H77.9l17.9-31L77.9,340Z" transform="translate(-24.2 -30)"/></g><g class="cls-1"><polygon class="cls-2" points="18.04 309.75 0.29 279 18.04 248.25 53.55 248.25 71.3 279 53.55 309.75 18.04 309.75"/><path class="cls-3" d="M77.61,278.5,95.22,309,77.61,339.5H42.39L24.78,309l17.61-30.5H77.61m.29-.5H42.1L24.2,309l17.9,31H77.9l17.9-31L77.9,278Z" transform="translate(-24.2 -30)"/></g><g class="cls-1"><polygon class="cls-2" points="18.04 247.75 0.29 217 18.04 186.25 53.55 186.25 71.3 217 53.55 247.75 18.04 247.75"/><path class="cls-3" d="M77.61,216.5,95.22,247,77.61,277.5H42.39L24.78,247l17.61-30.5H77.61m.29-.5H42.1L24.2,247l17.9,31H77.9l17.9-31L77.9,216Z" transform="translate(-24.2 -30)"/></g><g class="cls-1"><polygon class="cls-2" points="18.04 185.75 0.29 155 18.04 124.25 53.55 124.25 71.3 155 53.55 185.75 18.04 185.75"/><path class="cls-3" d="M77.61,154.5,95.22,185,77.61,215.5H42.39L24.78,185l17.61-30.5H77.61m.29-.5H42.1L24.2,185l17.9,31H77.9l17.9-31L77.9,154Z" transform="translate(-24.2 -30)"/></g><g class="cls-1"><polygon class="cls-2" points="18.04 123.75 0.29 93 18.04 62.25 53.55 62.25 71.3 93 53.55 123.75 18.04 123.75"/><path class="cls-3" d="M77.61,92.5,95.22,123,77.61,153.5H42.39L24.78,123,42.39,92.5H77.61m.29-.5H42.1L24.2,123l17.9,31H77.9l17.9-31L77.9,92Z" transform="translate(-24.2 -30)"/></g><g class="cls-1"><polygon class="cls-2" points="18.04 61.75 0.29 31 18.04 0.25 53.55 0.25 71.3 31 53.55 61.75 18.04 61.75"/><path class="cls-3" d="M77.61,30.5,95.22,61,77.61,91.5H42.39L24.78,61,42.39,30.5H77.61m.29-.5H42.1L24.2,61,42.1,92H77.9L95.8,61,77.9,30Z" transform="translate(-24.2 -30)"/></g></svg>